# Alias OBJ Model File
# Exported from SketchUp, (c) 2000-2012 Trimble Navigation Limited
# File units = millimeters

mtllib pico_dreamcast.mtl

g Mesh1 Group1 Model

usemtl FrontColor
v 10.6424 10.7838 2
vt 0.145669 0.507422
vn 0.5 -0.866025 0
v 9.83468 10.164 2
vt 0.145669 0.467339
vn 0.707107 -0.707107 0
v 9.83468 10.164 -5.78093e-14
vt 0.224409 0.467339
v 10.6424 10.7838 -5.78093e-14
vt 0.224409 0.507422
f 1/1/1 2/2/2 3/3/2 4/4/1 

v 4.99239 13.4063 2
vt 0.133858 0.472441
vn 0 0 1
vt 0.324499 0.344792
vt 0.356299 0.369193
f 5/5/3 2/6/3 1/7/3

v 9.55725 9.80244 2
vt 0.313577 0.330558
f 5/5/3 6/8/3 2/6/3

v 9.21489 9.35627 2
vt 0.300098 0.312992
f 5/5/3 7/9/3 6/8/3

v 8.82528 8.41567 2
vt 0.284759 0.27596
f 5/5/3 8/10/3 7/9/3

v 8.69239 7.40627 2
vt 0.279528 0.23622
f 5/5/3 9/11/3 8/10/3

v 8.82528 6.39688 2
vt 0.284759 0.196481
f 5/5/3 10/12/3 9/11/3

v 9.21489 5.45627 2
vt 0.300098 0.159449
f 5/5/3 11/13/3 10/12/3

v 4.99239 1.40627 2
vt 0.133858 0
f 12/14/3 11/13/3 5/5/3

v 9.83468 4.64856 2
vt 0.324499 0.127649
f 11/13/3 12/14/3 13/15/3

v 10.6424 4.02877 2
vt 0.356299 0.103248
f 13/15/3 12/14/3 14/16/3

v 11.583 3.63916 2
vt 0.393331 0.087909
f 14/16/3 12/14/3 15/17/3

v 12.5924 3.50627 2
vt 0.433071 0.0826772
f 15/17/3 12/14/3 16/18/3

v 13.6018 3.63916 2
vt 0.472811 0.087909
f 12/14/3 17/19/3 16/18/3

v 20.1924 1.40627 2
vt 0.732283 0
f 18/20/3 17/19/3 12/14/3

v 14.5424 4.02877 2
vt 0.509843 0.103248
f 17/19/3 18/20/3 19/21/3

v 15.3501 4.64856 2
vt 0.541642 0.127649
f 19/21/3 18/20/3 20/22/3

v 15.9699 5.45627 2
vt 0.566043 0.159449
f 20/22/3 18/20/3 21/23/3

v 20.1924 13.4063 2
vt 0.732283 0.472441
f 21/23/3 18/20/3 22/24/3

v 20.1924 13.4063 5.7
vt 0 0.472441
vn -1 0 0
vt -0.145669 0.472441
vt -0.145669 0
v 20.1924 1.40627 5.7
vt 0 0
f 23/25/4 22/26/4 18/27/4 24/28/4 

vn 0 1 0
v 23.5924 13.4063 5.7
vt 0.866142 0
v 23.5924 13.4063 3.7
vt 0.866142 0.0787402
v 21.8924 13.4063 3.7
vt 0.799213 0.0787402
v 21.8924 13.4063 2
vt 0.799213 0.145669
v 23.5924 13.4063 2
vt 0.866142 0.145669
v 23.5924 13.4063 -1.26898e-14
vt 0.866142 0.224409
v 1.59239 13.4063 -1.26898e-14
vt 0 0.224409
v 1.59239 13.4063 2
vt 0 0.145669
v 3.29239 13.4063 2
vt 0.0669291 0.145669
v 3.29239 13.4063 3.7
vt 0.0669291 0.0787402
v 1.59239 13.4063 3.7
vt 0 0.0787402
v 1.59239 13.4063 5.7
v 4.99239 13.4063 5.7
vt 0.133858 0.145669
vt 0.732283 0.145669
f 23/20/5 25/29/5 26/30/5 27/31/5 28/32/5 29/33/5 30/34/5 31/35/5 32/36/5 33/37/5 34/38/5 35/39/5 36/28/5 37/14/5 5/40/5 22/41/5 

v 23.5924 1.40627 5.7
vt 0.866142 0.472441
f 24/20/3 38/29/3 25/42/3 23/24/3 

vt -0.866142 0
vn 0 -1 0
vt -0.732283 0
vt -0.732283 0.145669
vt -0.133858 0.145669
v 4.99239 1.40627 5.7
vt -0.133858 0
v 1.59239 1.40627 5.7
v 1.59239 1.40627 3.7
v 3.29239 1.40627 3.7
vt -0.0669291 0.0787402
v 3.29239 1.40627 2
vt -0.0669291 0.145669
v 1.59239 1.40627 2
v 1.59239 1.40627 -1.26898e-14
v 23.5924 1.40627 -1.26898e-14
vt -0.866142 0.224409
v 23.5924 1.40627 2
vt -0.866142 0.145669
v 21.8924 1.40627 2
vt -0.799213 0.145669
v 21.8924 1.40627 3.7
vt -0.799213 0.0787402
v 23.5924 1.40627 3.7
vt -0.866142 0.0787402
f 38/43/6 24/44/6 18/45/6 12/46/6 39/47/6 40/28/6 41/39/6 42/48/6 43/49/6 44/36/6 45/35/6 46/50/6 47/51/6 48/52/6 49/53/6 50/54/6 

vt 0.145669 0.472441
vn 1 0 0
vt 0.145669 0
f 5/55/7 37/25/7 39/28/7 12/56/7 

f 40/28/3 39/14/3 37/5/3 36/25/3 

vt -0.0787402 0
vt -0.0787402 0.472441
f 41/57/4 40/28/4 36/25/4 35/58/4 

vt -0.0669291 0
vn 0 0 -1
vt -0.0669291 0.472441
f 42/59/8 41/28/8 35/25/8 34/60/8 

f 43/27/4 42/57/4 34/58/4 33/26/4 

vt 0.0669291 0
vt 0.0669291 0.472441
f 44/28/3 43/61/3 33/62/3 32/25/3 

vt -0.224409 0
vt -0.224409 0.472441
f 45/63/4 44/27/4 32/26/4 31/64/4 

v 9.83468 4.64856 -5.78093e-14
vt -0.324499 0.127649
f 51/65/8 45/28/8 31/25/8

v 10.6424 4.02877 -5.78093e-14
vt -0.356299 0.103248
f 52/66/8 45/28/8 51/65/8

v 11.583 3.63916 -5.78093e-14
vt -0.393331 0.087909
f 53/67/8 45/28/8 52/66/8

f 45/28/8 53/67/8 46/43/8

v 12.5924 3.50627 -5.78093e-14
vt -0.433071 0.0826772
f 46/43/8 53/67/8 54/68/8

vt 0.145669 -0.378492
vn 0.258819 0.965926 0
vt 0.145669 -0.418574
vn -1.39975e-16 1 0
vt 0.224409 -0.418574
vt 0.224409 -0.378492
f 15/69/9 16/70/10 54/71/10 53/72/9 

vt -0.145669 0.440157
vt -0.145669 0.48024
vn -0.258819 0.965926 0
v 13.6018 3.63916 -5.78093e-14
vt -0.224409 0.48024
vt -0.224409 0.440157
f 16/73/10 17/74/11 55/75/11 54/76/10 

vt -0.145669 0.470462
vt -0.145669 0.510544
vn -0.5 0.866025 0
v 14.5424 4.02877 -5.78093e-14
vt -0.224409 0.510544
vt -0.224409 0.470462
f 17/77/11 19/78/12 56/79/12 55/80/11 

vt -0.145669 0.467339
vt -0.145669 0.507422
vn -0.707107 0.707107 0
v 15.3501 4.64856 -5.78093e-14
vt -0.224409 0.507422
vt -0.224409 0.467339
f 19/81/12 20/82/13 57/83/13 56/84/12 

vt -0.145669 0.431002
v 15.6275 5.01011 2
vt -0.145669 0.448944
vn -0.793353 0.608761 0
v 15.6275 5.01011 -5.78093e-14
vt -0.224409 0.448944
vt -0.224409 0.431002
f 20/85/13 58/86/14 59/87/14 57/88/13 

vt 0.552565 0.141883
f 20/22/3 21/23/3 58/89/3

vt -0.145669 0.471085
vn -0.866025 0.5 0
v 15.9699 5.45627 -5.78093e-14
vt -0.224409 0.471085
f 58/86/14 21/90/15 60/91/15 59/87/14 

vt -0.145669 0.363927
v 16.3595 6.39688 2
vt -0.145669 0.40401
vn -0.965926 0.258819 0
v 16.3595 6.39688 -5.78093e-14
vt -0.224409 0.40401
vt -0.224409 0.363927
f 21/92/15 61/93/16 62/94/16 60/95/15 

vt 0.581382 0.196481
f 21/23/3 22/24/3 61/96/3

v 16.4924 7.40627 2
vt 0.586614 0.23622
f 61/96/3 22/24/3 63/97/3

v 16.3595 8.41567 2
vt 0.581382 0.27596
f 63/97/3 22/24/3 64/98/3

v 15.9699 9.35627 2
vt 0.566043 0.312992
f 64/98/3 22/24/3 65/99/3

v 15.6275 9.80244 2
vt 0.552565 0.330558
f 65/99/3 22/24/3 66/100/3

v 15.3501 10.164 2
vt 0.541642 0.344792
f 66/100/3 22/24/3 67/101/3

v 14.5424 10.7838 2
vt 0.509843 0.369193
f 67/101/3 22/24/3 68/102/3

v 13.6018 11.1734 2
vt 0.472811 0.384532
f 68/102/3 22/24/3 69/103/3

v 12.5924 11.3063 2
vt 0.433071 0.389764
f 69/103/3 22/24/3 70/104/3

f 5/5/3 70/104/3 22/24/3

v 11.583 11.1734 2
vt 0.393331 0.384532
f 5/5/3 71/105/3 70/104/3

f 5/5/3 1/7/3 71/105/3

vt 0.145669 0.510544
vn 0.258819 -0.965926 0
vt 0.145669 0.470462
vt 0.224409 0.470462
v 11.583 11.1734 -5.78093e-14
vt 0.224409 0.510544
f 71/106/17 1/107/1 4/108/1 72/109/17 

vt -0.356299 0.369193
vt -0.393331 0.384532
f 4/110/8 31/25/8 72/111/8

vt -0.324499 0.344792
f 3/112/8 31/25/8 4/110/8

v 9.55725 9.80244 -5.78093e-14
vt -0.313577 0.330558
f 73/113/8 31/25/8 3/112/8

v 9.21489 9.35627 -5.78093e-14
vt -0.300098 0.312992
f 74/114/8 31/25/8 73/113/8

v 8.82528 8.41567 -5.78093e-14
vt -0.284759 0.27596
f 75/115/8 31/25/8 74/114/8

v 8.69239 7.40627 -5.78093e-14
vt -0.279528 0.23622
f 76/116/8 31/25/8 75/115/8

v 8.82528 6.39688 -5.78093e-14
vt -0.284759 0.196481
f 77/117/8 31/25/8 76/116/8

v 9.21489 5.45627 -5.78093e-14
vt -0.300098 0.159449
f 78/118/8 31/25/8 77/117/8

v 9.55725 5.01011 -5.78093e-14
vt -0.313577 0.141883
f 79/119/8 31/25/8 78/118/8

f 51/65/8 31/25/8 79/119/8

v 9.55725 5.01011 2
vt 0.145669 -0.0783301
vn 0.793353 0.608761 0
vt 0.145669 -0.096272
vn 0.707107 0.707107 0
vt 0.224409 -0.096272
vt 0.224409 -0.0783301
f 80/120/18 13/121/19 51/122/19 79/123/18 

vt 0.313577 0.141883
f 11/13/3 13/15/3 80/124/3

vt 0.145669 -0.0561891
vn 0.866025 0.5 0
vt 0.224409 -0.0561891
f 11/125/20 80/120/18 79/123/18 78/126/20 

vt 0.145669 0.0725516
vn 0.965926 0.258819 0
vt 0.145669 0.0324688
vt 0.224409 0.0324688
vt 0.224409 0.0725516
f 10/127/21 11/128/20 78/129/20 77/130/21 

vt 0.145669 0.197714
vn 1 -1.81968e-16 0
vt 0.145669 0.157631
vt 0.224409 0.157631
vt 0.224409 0.197714
f 9/131/22 10/132/21 77/133/21 76/134/22 

vt 0.145669 0.310768
vn 0.965926 -0.258819 0
vt 0.145669 0.270685
vt 0.224409 0.270685
vt 0.224409 0.310768
f 8/135/23 9/136/22 76/137/22 75/138/23 

vt 0.145669 0.40401
vn 0.866025 -0.5 0
vt 0.145669 0.363927
vt 0.224409 0.363927
vt 0.224409 0.40401
f 7/139/24 8/140/23 75/141/23 74/142/24 

vt 0.145669 0.453143
vn 0.793353 -0.608761 0
vt 0.145669 0.431002
vt 0.224409 0.431002
vt 0.224409 0.453143
f 6/143/25 7/144/24 74/145/24 73/146/25 

vt 0.145669 0.471085
vt 0.224409 0.471085
f 2/147/2 6/143/25 73/146/25 3/148/2 

vt 0.145669 -0.179735
vt 0.145669 -0.219818
vn 0.5 0.866025 0
vt 0.224409 -0.219818
vt 0.224409 -0.179735
f 13/149/19 14/150/26 52/151/26 51/152/19 

vt 0.145669 -0.289666
vt 0.145669 -0.329749
vt 0.224409 -0.329749
vt 0.224409 -0.289666
f 14/153/26 15/154/9 53/155/9 52/156/26 

v 12.5924 11.3063 -5.78093e-14
vt -0.433071 0.389764
f 72/111/8 31/25/8 81/157/8

vt -0.866142 0.472441
f 30/158/8 81/157/8 31/25/8

v 13.6018 11.1734 -5.78093e-14
vt -0.472811 0.384532
f 30/158/8 82/159/8 81/157/8

v 14.5424 10.7838 -5.78093e-14
vt -0.509843 0.369193
f 30/158/8 83/160/8 82/159/8

v 15.3501 10.164 -5.78093e-14
vt -0.541642 0.344792
f 30/158/8 84/161/8 83/160/8

v 15.6275 9.80244 -5.78093e-14
vt -0.552565 0.330558
f 30/158/8 85/162/8 84/161/8

v 15.9699 9.35627 -5.78093e-14
vt -0.566043 0.312992
f 30/158/8 86/163/8 85/162/8

v 16.3595 8.41567 -5.78093e-14
vt -0.581382 0.27596
f 30/158/8 87/164/8 86/163/8

v 16.4924 7.40627 -5.78093e-14
vt -0.586614 0.23622
f 30/158/8 88/165/8 87/164/8

vt -0.581382 0.196481
f 30/158/8 62/166/8 88/165/8

vt -0.566043 0.159449
f 30/158/8 60/167/8 62/166/8

vt -0.552565 0.141883
f 30/158/8 59/168/8 60/167/8

vt -0.541642 0.127649
f 30/158/8 57/169/8 59/168/8

f 46/43/8 57/169/8 30/158/8

vt -0.509843 0.103248
f 57/169/8 46/43/8 56/170/8

vt -0.472811 0.087909
f 56/170/8 46/43/8 55/171/8

f 55/171/8 46/43/8 54/68/8

vt 0.224409 0
vt 0.224409 0.472441
f 47/56/7 46/172/7 30/173/7 29/55/7 

vt 0.799213 0
vt 0.799213 0.472441
f 48/174/3 47/29/3 29/42/3 28/175/3 

vt 0.0787402 0
vt 0.0787402 0.472441
f 49/176/7 48/56/7 28/55/7 27/177/7 

vt -0.799213 0
vt -0.799213 0.472441
f 50/43/8 49/178/8 27/179/8 26/158/8 

f 38/28/7 50/176/7 26/177/7 25/25/7 

vt -0.145669 0.270685
vt -0.145669 0.310768
vn -1 1.81968e-16 0
vt -0.224409 0.310768
vt -0.224409 0.270685
f 61/180/16 63/181/27 88/182/27 62/183/16 

vt -0.145669 0.157631
vt -0.145669 0.197714
vn -0.965926 -0.258819 -0
vt -0.224409 0.197714
vt -0.224409 0.157631
f 63/184/27 64/185/28 87/186/28 88/187/27 

vt -0.145669 0.0324688
vt -0.145669 0.0725516
vn -0.866025 -0.5 -0
vt -0.224409 0.0725516
vt -0.224409 0.0324688
f 64/188/28 65/189/29 86/190/29 87/191/28 

vt -0.145669 -0.096272
vt -0.145669 -0.074131
vn -0.793353 -0.608761 -0
vt -0.224409 -0.074131
vt -0.224409 -0.096272
f 65/192/29 66/193/30 85/194/30 86/195/29 

vt -0.145669 -0.0561891
vn -0.707107 -0.707107 -0
vt -0.224409 -0.0561891
f 66/193/30 67/196/31 84/197/31 85/194/30 

vt -0.145669 -0.219818
vt -0.145669 -0.179735
vn -0.5 -0.866025 -0
vt -0.224409 -0.179735
vt -0.224409 -0.219818
f 67/198/31 68/199/32 83/200/32 84/201/31 

vt -0.145669 -0.329749
vt -0.145669 -0.289666
vn -0.258819 -0.965926 -0
vt -0.224409 -0.289666
vt -0.224409 -0.329749
f 68/202/32 69/203/33 82/204/33 83/205/32 

vt -0.145669 -0.418574
vt -0.145669 -0.378492
vn -9.0984e-16 -1 -0
vt -0.224409 -0.378492
vt -0.224409 -0.418574
f 69/206/33 70/207/34 81/208/34 82/209/33 

vt 0.145669 0.48024
vt 0.145669 0.440157
vt 0.224409 0.440157
vt 0.224409 0.48024
f 70/210/34 71/211/17 72/212/17 81/213/34 

