M48
INCH,TZ
T1C0.0402
T2C0.0650
T3C0.0689
T4C0.1476
%
G90
G05
T1
X60510Y-27770
X62071Y-27770
X63630Y-27770
X65190Y-27770
X66750Y-27770
X68310Y-27770
T2
X71991Y-28321
X75109Y-28321
T3
X59801Y-33725
X59801Y-35890
X61455Y-33725
X61455Y-35890
X63108Y-33725
X63108Y-35890
X64762Y-33725
X64762Y-35890
X66415Y-33725
X66415Y-35890
X68069Y-33725
X68069Y-35890
X69722Y-33725
X69722Y-35890
X71376Y-33725
X71376Y-35890
X73029Y-33725
X73029Y-35890
X74683Y-33725
X74683Y-35890
X76336Y-33725
X76336Y-35890
X77990Y-33725
X77990Y-35890
T4
X76322Y-31554
T0
M30
