G04 #@! TF.GenerationSoftware,KiCad,Pcbnew,(5.0.0-3-g5ebb6b6)*
G04 #@! TF.CreationDate,2018-12-11T03:05:49+01:00*
G04 #@! TF.ProjectId,pico_psu_mount,7069636F5F7073755F6D6F756E742E6B,rev?*
G04 #@! TF.SameCoordinates,Original*
G04 #@! TF.FileFunction,Legend,Top*
G04 #@! TF.FilePolarity,Positive*
%FSLAX46Y46*%
G04 Gerber Fmt 4.6, Leading zero omitted, Abs format (unit mm)*
G04 Created by KiCad (PCBNEW (5.0.0-3-g5ebb6b6)) date 2018 December 11, Tuesday 03:05:49*
%MOMM*%
%LPD*%
G01*
G04 APERTURE LIST*
%ADD10C,0.300000*%
%ADD11C,0.150000*%
%ADD12C,0.120000*%
G04 APERTURE END LIST*
D10*
X150552142Y-81378571D02*
X150552142Y-79878571D01*
X151123571Y-79878571D01*
X151266428Y-79950000D01*
X151337857Y-80021428D01*
X151409285Y-80164285D01*
X151409285Y-80378571D01*
X151337857Y-80521428D01*
X151266428Y-80592857D01*
X151123571Y-80664285D01*
X150552142Y-80664285D01*
X152052142Y-81378571D02*
X152052142Y-80378571D01*
X152052142Y-79878571D02*
X151980714Y-79950000D01*
X152052142Y-80021428D01*
X152123571Y-79950000D01*
X152052142Y-79878571D01*
X152052142Y-80021428D01*
X153409285Y-81307142D02*
X153266428Y-81378571D01*
X152980714Y-81378571D01*
X152837857Y-81307142D01*
X152766428Y-81235714D01*
X152695000Y-81092857D01*
X152695000Y-80664285D01*
X152766428Y-80521428D01*
X152837857Y-80450000D01*
X152980714Y-80378571D01*
X153266428Y-80378571D01*
X153409285Y-80450000D01*
X154266428Y-81378571D02*
X154123571Y-81307142D01*
X154052142Y-81235714D01*
X153980714Y-81092857D01*
X153980714Y-80664285D01*
X154052142Y-80521428D01*
X154123571Y-80450000D01*
X154266428Y-80378571D01*
X154480714Y-80378571D01*
X154623571Y-80450000D01*
X154695000Y-80521428D01*
X154766428Y-80664285D01*
X154766428Y-81092857D01*
X154695000Y-81235714D01*
X154623571Y-81307142D01*
X154480714Y-81378571D01*
X154266428Y-81378571D01*
X155409285Y-81378571D02*
X155409285Y-79878571D01*
X155766428Y-79878571D01*
X155980714Y-79950000D01*
X156123571Y-80092857D01*
X156195000Y-80235714D01*
X156266428Y-80521428D01*
X156266428Y-80735714D01*
X156195000Y-81021428D01*
X156123571Y-81164285D01*
X155980714Y-81307142D01*
X155766428Y-81378571D01*
X155409285Y-81378571D01*
X156909285Y-81378571D02*
X156909285Y-80378571D01*
X156909285Y-80664285D02*
X156980714Y-80521428D01*
X157052142Y-80450000D01*
X157195000Y-80378571D01*
X157337857Y-80378571D01*
X158409285Y-81307142D02*
X158266428Y-81378571D01*
X157980714Y-81378571D01*
X157837857Y-81307142D01*
X157766428Y-81164285D01*
X157766428Y-80592857D01*
X157837857Y-80450000D01*
X157980714Y-80378571D01*
X158266428Y-80378571D01*
X158409285Y-80450000D01*
X158480714Y-80592857D01*
X158480714Y-80735714D01*
X157766428Y-80878571D01*
X159766428Y-81378571D02*
X159766428Y-80592857D01*
X159695000Y-80450000D01*
X159552142Y-80378571D01*
X159266428Y-80378571D01*
X159123571Y-80450000D01*
X159766428Y-81307142D02*
X159623571Y-81378571D01*
X159266428Y-81378571D01*
X159123571Y-81307142D01*
X159052142Y-81164285D01*
X159052142Y-81021428D01*
X159123571Y-80878571D01*
X159266428Y-80807142D01*
X159623571Y-80807142D01*
X159766428Y-80735714D01*
X160480714Y-81378571D02*
X160480714Y-80378571D01*
X160480714Y-80521428D02*
X160552142Y-80450000D01*
X160695000Y-80378571D01*
X160909285Y-80378571D01*
X161052142Y-80450000D01*
X161123571Y-80592857D01*
X161123571Y-81378571D01*
X161123571Y-80592857D02*
X161195000Y-80450000D01*
X161337857Y-80378571D01*
X161552142Y-80378571D01*
X161695000Y-80450000D01*
X161766428Y-80592857D01*
X161766428Y-81378571D01*
X163123571Y-81307142D02*
X162980714Y-81378571D01*
X162695000Y-81378571D01*
X162552142Y-81307142D01*
X162480714Y-81235714D01*
X162409285Y-81092857D01*
X162409285Y-80664285D01*
X162480714Y-80521428D01*
X162552142Y-80450000D01*
X162695000Y-80378571D01*
X162980714Y-80378571D01*
X163123571Y-80450000D01*
X164409285Y-81378571D02*
X164409285Y-80592857D01*
X164337857Y-80450000D01*
X164195000Y-80378571D01*
X163909285Y-80378571D01*
X163766428Y-80450000D01*
X164409285Y-81307142D02*
X164266428Y-81378571D01*
X163909285Y-81378571D01*
X163766428Y-81307142D01*
X163695000Y-81164285D01*
X163695000Y-81021428D01*
X163766428Y-80878571D01*
X163909285Y-80807142D01*
X164266428Y-80807142D01*
X164409285Y-80735714D01*
X165052142Y-81307142D02*
X165195000Y-81378571D01*
X165480714Y-81378571D01*
X165623571Y-81307142D01*
X165695000Y-81164285D01*
X165695000Y-81092857D01*
X165623571Y-80950000D01*
X165480714Y-80878571D01*
X165266428Y-80878571D01*
X165123571Y-80807142D01*
X165052142Y-80664285D01*
X165052142Y-80592857D01*
X165123571Y-80450000D01*
X165266428Y-80378571D01*
X165480714Y-80378571D01*
X165623571Y-80450000D01*
X166123571Y-80378571D02*
X166695000Y-80378571D01*
X166337857Y-79878571D02*
X166337857Y-81164285D01*
X166409285Y-81307142D01*
X166552142Y-81378571D01*
X166695000Y-81378571D01*
X168195000Y-80378571D02*
X168552142Y-81378571D01*
X168909285Y-80378571D01*
X170266428Y-81378571D02*
X169409285Y-81378571D01*
X169837857Y-81378571D02*
X169837857Y-79878571D01*
X169695000Y-80092857D01*
X169552142Y-80235714D01*
X169409285Y-80307142D01*
X170909285Y-81235714D02*
X170980714Y-81307142D01*
X170909285Y-81378571D01*
X170837857Y-81307142D01*
X170909285Y-81235714D01*
X170909285Y-81378571D01*
X172409285Y-81378571D02*
X171552142Y-81378571D01*
X171980714Y-81378571D02*
X171980714Y-79878571D01*
X171837857Y-80092857D01*
X171695000Y-80235714D01*
X171552142Y-80307142D01*
X178780714Y-80664285D02*
X178709285Y-80592857D01*
X178566428Y-80521428D01*
X178423571Y-80521428D01*
X178280714Y-80592857D01*
X178209285Y-80664285D01*
X178137857Y-80807142D01*
X178137857Y-80950000D01*
X178209285Y-81092857D01*
X178280714Y-81164285D01*
X178423571Y-81235714D01*
X178566428Y-81235714D01*
X178709285Y-81164285D01*
X178780714Y-81092857D01*
X178780714Y-80521428D02*
X178780714Y-81092857D01*
X178852142Y-81164285D01*
X178923571Y-81164285D01*
X179066428Y-81092857D01*
X179137857Y-80950000D01*
X179137857Y-80592857D01*
X178995000Y-80378571D01*
X178780714Y-80235714D01*
X178495000Y-80164285D01*
X178209285Y-80235714D01*
X177995000Y-80378571D01*
X177852142Y-80592857D01*
X177780714Y-80878571D01*
X177852142Y-81164285D01*
X177995000Y-81378571D01*
X178209285Y-81521428D01*
X178495000Y-81592857D01*
X178780714Y-81521428D01*
X178995000Y-81378571D01*
X180423571Y-81307142D02*
X180280714Y-81378571D01*
X179995000Y-81378571D01*
X179852142Y-81307142D01*
X179780714Y-81235714D01*
X179709285Y-81092857D01*
X179709285Y-80664285D01*
X179780714Y-80521428D01*
X179852142Y-80450000D01*
X179995000Y-80378571D01*
X180280714Y-80378571D01*
X180423571Y-80450000D01*
X181066428Y-81378571D02*
X181066428Y-79878571D01*
X181709285Y-81378571D02*
X181709285Y-80592857D01*
X181637857Y-80450000D01*
X181495000Y-80378571D01*
X181280714Y-80378571D01*
X181137857Y-80450000D01*
X181066428Y-80521428D01*
X182423571Y-81378571D02*
X182423571Y-80378571D01*
X182423571Y-80664285D02*
X182495000Y-80521428D01*
X182566428Y-80450000D01*
X182709285Y-80378571D01*
X182852142Y-80378571D01*
X183352142Y-81378571D02*
X183352142Y-80378571D01*
X183352142Y-79878571D02*
X183280714Y-79950000D01*
X183352142Y-80021428D01*
X183423571Y-79950000D01*
X183352142Y-79878571D01*
X183352142Y-80021428D01*
X183923571Y-80378571D02*
X184709285Y-80378571D01*
X183923571Y-81378571D01*
X184709285Y-81378571D01*
X185209285Y-80021428D02*
X185280714Y-79950000D01*
X185423571Y-79878571D01*
X185780714Y-79878571D01*
X185923571Y-79950000D01*
X185995000Y-80021428D01*
X186066428Y-80164285D01*
X186066428Y-80307142D01*
X185995000Y-80521428D01*
X185137857Y-81378571D01*
X186066428Y-81378571D01*
X187352142Y-79878571D02*
X187066428Y-79878571D01*
X186923571Y-79950000D01*
X186852142Y-80021428D01*
X186709285Y-80235714D01*
X186637857Y-80521428D01*
X186637857Y-81092857D01*
X186709285Y-81235714D01*
X186780714Y-81307142D01*
X186923571Y-81378571D01*
X187209285Y-81378571D01*
X187352142Y-81307142D01*
X187423571Y-81235714D01*
X187495000Y-81092857D01*
X187495000Y-80735714D01*
X187423571Y-80592857D01*
X187352142Y-80521428D01*
X187209285Y-80450000D01*
X186923571Y-80450000D01*
X186780714Y-80521428D01*
X186709285Y-80592857D01*
X186637857Y-80735714D01*
X188423571Y-79878571D02*
X188566428Y-79878571D01*
X188709285Y-79950000D01*
X188780714Y-80021428D01*
X188852142Y-80164285D01*
X188923571Y-80450000D01*
X188923571Y-80807142D01*
X188852142Y-81092857D01*
X188780714Y-81235714D01*
X188709285Y-81307142D01*
X188566428Y-81378571D01*
X188423571Y-81378571D01*
X188280714Y-81307142D01*
X188209285Y-81235714D01*
X188137857Y-81092857D01*
X188066428Y-80807142D01*
X188066428Y-80450000D01*
X188137857Y-80164285D01*
X188209285Y-80021428D01*
X188280714Y-79950000D01*
X188423571Y-79878571D01*
X189852142Y-79878571D02*
X189995000Y-79878571D01*
X190137857Y-79950000D01*
X190209285Y-80021428D01*
X190280714Y-80164285D01*
X190352142Y-80450000D01*
X190352142Y-80807142D01*
X190280714Y-81092857D01*
X190209285Y-81235714D01*
X190137857Y-81307142D01*
X189995000Y-81378571D01*
X189852142Y-81378571D01*
X189709285Y-81307142D01*
X189637857Y-81235714D01*
X189566428Y-81092857D01*
X189495000Y-80807142D01*
X189495000Y-80450000D01*
X189566428Y-80164285D01*
X189637857Y-80021428D01*
X189709285Y-79950000D01*
X189852142Y-79878571D01*
D11*
G04 #@! TO.C,U2*
X201094600Y-94160600D02*
X148094600Y-94160600D01*
X148094600Y-94160600D02*
X148094600Y-83160600D01*
X148094600Y-83160600D02*
X148094600Y-82160600D01*
X148094600Y-82160600D02*
X201094600Y-82160600D01*
X201094600Y-82160600D02*
X201094600Y-94160600D01*
X177094600Y-82160600D02*
X177094600Y-80160600D01*
X177094600Y-80160600D02*
X173094600Y-80160600D01*
X173094600Y-80160600D02*
X173094600Y-82160600D01*
G04 #@! TO.C,U1*
X175582600Y-68183000D02*
X175582600Y-77183000D01*
X151582600Y-68183000D02*
X175582600Y-68183000D01*
X151582600Y-77183000D02*
X151582600Y-68183000D01*
X175582600Y-77183000D02*
X151582600Y-77183000D01*
D12*
G04 #@! TO.C,10k*
X148573600Y-68570400D02*
X148573600Y-67370400D01*
X150333600Y-67370400D02*
X150333600Y-68570400D01*
G04 #@! TO.C,U2*
D11*
X148788095Y-87652380D02*
X148788095Y-88461904D01*
X148835714Y-88557142D01*
X148883333Y-88604761D01*
X148978571Y-88652380D01*
X149169047Y-88652380D01*
X149264285Y-88604761D01*
X149311904Y-88557142D01*
X149359523Y-88461904D01*
X149359523Y-87652380D01*
X149788095Y-87747619D02*
X149835714Y-87700000D01*
X149930952Y-87652380D01*
X150169047Y-87652380D01*
X150264285Y-87700000D01*
X150311904Y-87747619D01*
X150359523Y-87842857D01*
X150359523Y-87938095D01*
X150311904Y-88080952D01*
X149740476Y-88652380D01*
X150359523Y-88652380D01*
X202380314Y-93612980D02*
X201808885Y-93612980D01*
X202094600Y-93612980D02*
X202094600Y-92612980D01*
X201999361Y-92755838D01*
X201904123Y-92851076D01*
X201808885Y-92898695D01*
X145904123Y-93612980D02*
X145332695Y-93612980D01*
X145618409Y-93612980D02*
X145618409Y-92612980D01*
X145523171Y-92755838D01*
X145427933Y-92851076D01*
X145332695Y-92898695D01*
X146285076Y-92708219D02*
X146332695Y-92660600D01*
X146427933Y-92612980D01*
X146666028Y-92612980D01*
X146761266Y-92660600D01*
X146808885Y-92708219D01*
X146856504Y-92803457D01*
X146856504Y-92898695D01*
X146808885Y-93041552D01*
X146237457Y-93612980D01*
X146856504Y-93612980D01*
X202904123Y-83612980D02*
X202332695Y-83612980D01*
X202618409Y-83612980D02*
X202618409Y-82612980D01*
X202523171Y-82755838D01*
X202427933Y-82851076D01*
X202332695Y-82898695D01*
X203237457Y-82612980D02*
X203856504Y-82612980D01*
X203523171Y-82993933D01*
X203666028Y-82993933D01*
X203761266Y-83041552D01*
X203808885Y-83089171D01*
X203856504Y-83184409D01*
X203856504Y-83422504D01*
X203808885Y-83517742D01*
X203761266Y-83565361D01*
X203666028Y-83612980D01*
X203380314Y-83612980D01*
X203285076Y-83565361D01*
X203237457Y-83517742D01*
X145904123Y-83612980D02*
X145332695Y-83612980D01*
X145618409Y-83612980D02*
X145618409Y-82612980D01*
X145523171Y-82755838D01*
X145427933Y-82851076D01*
X145332695Y-82898695D01*
X146761266Y-82946314D02*
X146761266Y-83612980D01*
X146523171Y-82565361D02*
X146285076Y-83279647D01*
X146904123Y-83279647D01*
G04 #@! TO.C,J1*
X186483666Y-71461380D02*
X186483666Y-72175666D01*
X186436047Y-72318523D01*
X186340809Y-72413761D01*
X186197952Y-72461380D01*
X186102714Y-72461380D01*
X187483666Y-72461380D02*
X186912238Y-72461380D01*
X187197952Y-72461380D02*
X187197952Y-71461380D01*
X187102714Y-71604238D01*
X187007476Y-71699476D01*
X186912238Y-71747095D01*
G04 #@! TO.C,U1*
X162838095Y-66652380D02*
X162838095Y-67461904D01*
X162885714Y-67557142D01*
X162933333Y-67604761D01*
X163028571Y-67652380D01*
X163219047Y-67652380D01*
X163314285Y-67604761D01*
X163361904Y-67557142D01*
X163409523Y-67461904D01*
X163409523Y-66652380D01*
X164409523Y-67652380D02*
X163838095Y-67652380D01*
X164123809Y-67652380D02*
X164123809Y-66652380D01*
X164028571Y-66795238D01*
X163933333Y-66890476D01*
X163838095Y-66938095D01*
G04 #@! TO.C,10k*
X149905980Y-72401038D02*
X149905980Y-72972466D01*
X149905980Y-72686752D02*
X148905980Y-72686752D01*
X149048838Y-72781990D01*
X149144076Y-72877228D01*
X149191695Y-72972466D01*
X148905980Y-71781990D02*
X148905980Y-71686752D01*
X148953600Y-71591514D01*
X149001219Y-71543895D01*
X149096457Y-71496276D01*
X149286933Y-71448657D01*
X149525028Y-71448657D01*
X149715504Y-71496276D01*
X149810742Y-71543895D01*
X149858361Y-71591514D01*
X149905980Y-71686752D01*
X149905980Y-71781990D01*
X149858361Y-71877228D01*
X149810742Y-71924847D01*
X149715504Y-71972466D01*
X149525028Y-72020085D01*
X149286933Y-72020085D01*
X149096457Y-71972466D01*
X149001219Y-71924847D01*
X148953600Y-71877228D01*
X148905980Y-71781990D01*
X149905980Y-71020085D02*
X148905980Y-71020085D01*
X149525028Y-70924847D02*
X149905980Y-70639133D01*
X149239314Y-70639133D02*
X149620266Y-71020085D01*
G04 #@! TD*
M02*
