G04 #@! TF.GenerationSoftware,KiCad,Pcbnew,(5.0.0)*
G04 #@! TF.CreationDate,2018-11-29T21:46:58+01:00*
G04 #@! TF.ProjectId,pico_psu_mount,7069636F5F7073755F6D6F756E742E6B,rev?*
G04 #@! TF.SameCoordinates,Original*
G04 #@! TF.FileFunction,Copper,L2,Bot,Signal*
G04 #@! TF.FilePolarity,Positive*
%FSLAX46Y46*%
G04 Gerber Fmt 4.6, Leading zero omitted, Abs format (unit mm)*
G04 Created by KiCad (PCBNEW (5.0.0)) date 11/29/18 21:46:58*
%MOMM*%
%LPD*%
G01*
G04 APERTURE LIST*
G04 #@! TA.AperFunction,ComponentPad*
%ADD10C,3.000000*%
G04 #@! TD*
G04 #@! TA.AperFunction,ComponentPad*
%ADD11C,2.400000*%
G04 #@! TD*
G04 #@! TA.AperFunction,ComponentPad*
%ADD12C,1.824000*%
G04 #@! TD*
G04 #@! TA.AperFunction,ViaPad*
%ADD13C,4.400000*%
G04 #@! TD*
G04 #@! TA.AperFunction,Conductor*
%ADD14C,3.000000*%
G04 #@! TD*
G04 #@! TA.AperFunction,Conductor*
%ADD15C,0.254000*%
G04 #@! TD*
G04 APERTURE END LIST*
D10*
G04 #@! TO.P,U2,24*
G04 #@! TO.N,GND*
X151894600Y-85660600D03*
G04 #@! TO.P,U2,23*
G04 #@! TO.N,Net-(U2-Pad23)*
X156094600Y-85660600D03*
G04 #@! TO.P,U2,22*
G04 #@! TO.N,Net-(U2-Pad22)*
X160294600Y-85660600D03*
G04 #@! TO.P,U2,21*
G04 #@! TO.N,/5V*
X164494600Y-85660600D03*
G04 #@! TO.P,U2,20*
G04 #@! TO.N,Net-(U2-Pad20)*
X168694600Y-85660600D03*
G04 #@! TO.P,U2,19*
G04 #@! TO.N,GND*
X172894600Y-85660600D03*
G04 #@! TO.P,U2,18*
X177094600Y-85660600D03*
G04 #@! TO.P,U2,17*
X181294600Y-85660600D03*
G04 #@! TO.P,U2,16*
G04 #@! TO.N,/nPSon*
X185494600Y-85660600D03*
G04 #@! TO.P,U2,15*
G04 #@! TO.N,GND*
X189694600Y-85660600D03*
G04 #@! TO.P,U2,14*
G04 #@! TO.N,Net-(U2-Pad14)*
X193894600Y-85660600D03*
G04 #@! TO.P,U2,13*
G04 #@! TO.N,/3.3V*
X198094600Y-85660600D03*
G04 #@! TO.P,U2,12*
G04 #@! TO.N,Net-(U2-Pad12)*
X151894600Y-91160600D03*
G04 #@! TO.P,U2,11*
G04 #@! TO.N,Net-(U2-Pad11)*
X156094600Y-91160600D03*
G04 #@! TO.P,U2,10*
G04 #@! TO.N,/12V*
X160294600Y-91160600D03*
G04 #@! TO.P,U2,9*
G04 #@! TO.N,Net-(U2-Pad9)*
X164494600Y-91160600D03*
G04 #@! TO.P,U2,8*
G04 #@! TO.N,Net-(U2-Pad8)*
X168694600Y-91160600D03*
G04 #@! TO.P,U2,7*
G04 #@! TO.N,GND*
X172894600Y-91160600D03*
G04 #@! TO.P,U2,6*
G04 #@! TO.N,Net-(U2-Pad6)*
X177094600Y-91160600D03*
G04 #@! TO.P,U2,5*
G04 #@! TO.N,GND*
X181294600Y-91160600D03*
G04 #@! TO.P,U2,4*
G04 #@! TO.N,Net-(U2-Pad4)*
X185494600Y-91160600D03*
G04 #@! TO.P,U2,3*
G04 #@! TO.N,GND*
X189694600Y-91160600D03*
G04 #@! TO.P,U2,2*
G04 #@! TO.N,Net-(U2-Pad2)*
X193894600Y-91160600D03*
G04 #@! TO.P,U2,1*
G04 #@! TO.N,Net-(U2-Pad1)*
X198094600Y-91160600D03*
G04 #@! TD*
D11*
G04 #@! TO.P,J1,1*
G04 #@! TO.N,/nPSon*
X182857000Y-71935200D03*
G04 #@! TO.P,J1,2*
G04 #@! TO.N,GND*
X190777000Y-71935200D03*
G04 #@! TD*
D12*
G04 #@! TO.P,U1,1*
G04 #@! TO.N,/3.3V*
X173507400Y-70535800D03*
G04 #@! TO.P,U1,2*
G04 #@! TO.N,/5V*
X169545000Y-70535800D03*
G04 #@! TO.P,U1,3*
G04 #@! TO.N,GND*
X165582600Y-70535800D03*
G04 #@! TO.P,U1,4*
X161620200Y-70535800D03*
G04 #@! TO.P,U1,5*
X157659400Y-70535800D03*
G04 #@! TO.P,U1,6*
G04 #@! TO.N,/12V*
X153695400Y-70535800D03*
G04 #@! TD*
D13*
G04 #@! TO.N,*
X193858600Y-80146000D03*
G04 #@! TD*
D14*
G04 #@! TO.N,/5V*
X164494600Y-83864549D02*
X164494600Y-85660600D01*
X169034949Y-79324200D02*
X164494600Y-83864549D01*
X175361600Y-79324200D02*
X169034949Y-79324200D01*
X176403000Y-67310000D02*
X178257200Y-69164200D01*
X171297600Y-67310000D02*
X176403000Y-67310000D01*
X178257200Y-69164200D02*
X178257200Y-76428600D01*
X178257200Y-76428600D02*
X175361600Y-79324200D01*
X169545000Y-69062600D02*
X171297600Y-67310000D01*
X169545000Y-70535800D02*
X169545000Y-69062600D01*
G04 #@! TD*
D15*
G04 #@! TO.N,GND*
G36*
X201473600Y-94311000D02*
X147979600Y-94311000D01*
X147979600Y-90735922D01*
X149759600Y-90735922D01*
X149759600Y-91585278D01*
X150084634Y-92369980D01*
X150685220Y-92970566D01*
X151469922Y-93295600D01*
X152319278Y-93295600D01*
X153103980Y-92970566D01*
X153704566Y-92369980D01*
X153994600Y-91669776D01*
X154284634Y-92369980D01*
X154885220Y-92970566D01*
X155669922Y-93295600D01*
X156519278Y-93295600D01*
X157303980Y-92970566D01*
X157904566Y-92369980D01*
X158194600Y-91669776D01*
X158484634Y-92369980D01*
X159085220Y-92970566D01*
X159869922Y-93295600D01*
X160719278Y-93295600D01*
X161503980Y-92970566D01*
X162104566Y-92369980D01*
X162394600Y-91669776D01*
X162684634Y-92369980D01*
X163285220Y-92970566D01*
X164069922Y-93295600D01*
X164919278Y-93295600D01*
X165703980Y-92970566D01*
X166304566Y-92369980D01*
X166594600Y-91669776D01*
X166884634Y-92369980D01*
X167485220Y-92970566D01*
X168269922Y-93295600D01*
X169119278Y-93295600D01*
X169903980Y-92970566D01*
X170199976Y-92674570D01*
X171560235Y-92674570D01*
X171720018Y-92993339D01*
X172510787Y-93303323D01*
X173359987Y-93287097D01*
X174069182Y-92993339D01*
X174228965Y-92674570D01*
X172894600Y-91340205D01*
X171560235Y-92674570D01*
X170199976Y-92674570D01*
X170504566Y-92369980D01*
X170790420Y-91679866D01*
X171061861Y-92335182D01*
X171380630Y-92494965D01*
X172714995Y-91160600D01*
X173074205Y-91160600D01*
X174408570Y-92494965D01*
X174727339Y-92335182D01*
X174991302Y-91661813D01*
X175284634Y-92369980D01*
X175885220Y-92970566D01*
X176669922Y-93295600D01*
X177519278Y-93295600D01*
X178303980Y-92970566D01*
X178599976Y-92674570D01*
X179960235Y-92674570D01*
X180120018Y-92993339D01*
X180910787Y-93303323D01*
X181759987Y-93287097D01*
X182469182Y-92993339D01*
X182628965Y-92674570D01*
X181294600Y-91340205D01*
X179960235Y-92674570D01*
X178599976Y-92674570D01*
X178904566Y-92369980D01*
X179190420Y-91679866D01*
X179461861Y-92335182D01*
X179780630Y-92494965D01*
X181114995Y-91160600D01*
X181474205Y-91160600D01*
X182808570Y-92494965D01*
X183127339Y-92335182D01*
X183391302Y-91661813D01*
X183684634Y-92369980D01*
X184285220Y-92970566D01*
X185069922Y-93295600D01*
X185919278Y-93295600D01*
X186703980Y-92970566D01*
X186999976Y-92674570D01*
X188360235Y-92674570D01*
X188520018Y-92993339D01*
X189310787Y-93303323D01*
X190159987Y-93287097D01*
X190869182Y-92993339D01*
X191028965Y-92674570D01*
X189694600Y-91340205D01*
X188360235Y-92674570D01*
X186999976Y-92674570D01*
X187304566Y-92369980D01*
X187590420Y-91679866D01*
X187861861Y-92335182D01*
X188180630Y-92494965D01*
X189514995Y-91160600D01*
X189874205Y-91160600D01*
X191208570Y-92494965D01*
X191527339Y-92335182D01*
X191791302Y-91661813D01*
X192084634Y-92369980D01*
X192685220Y-92970566D01*
X193469922Y-93295600D01*
X194319278Y-93295600D01*
X195103980Y-92970566D01*
X195704566Y-92369980D01*
X195994600Y-91669776D01*
X196284634Y-92369980D01*
X196885220Y-92970566D01*
X197669922Y-93295600D01*
X198519278Y-93295600D01*
X199303980Y-92970566D01*
X199904566Y-92369980D01*
X200229600Y-91585278D01*
X200229600Y-90735922D01*
X199904566Y-89951220D01*
X199303980Y-89350634D01*
X198519278Y-89025600D01*
X197669922Y-89025600D01*
X196885220Y-89350634D01*
X196284634Y-89951220D01*
X195994600Y-90651424D01*
X195704566Y-89951220D01*
X195103980Y-89350634D01*
X194319278Y-89025600D01*
X193469922Y-89025600D01*
X192685220Y-89350634D01*
X192084634Y-89951220D01*
X191798780Y-90641334D01*
X191527339Y-89986018D01*
X191208570Y-89826235D01*
X189874205Y-91160600D01*
X189514995Y-91160600D01*
X188180630Y-89826235D01*
X187861861Y-89986018D01*
X187597898Y-90659387D01*
X187304566Y-89951220D01*
X186999976Y-89646630D01*
X188360235Y-89646630D01*
X189694600Y-90980995D01*
X191028965Y-89646630D01*
X190869182Y-89327861D01*
X190078413Y-89017877D01*
X189229213Y-89034103D01*
X188520018Y-89327861D01*
X188360235Y-89646630D01*
X186999976Y-89646630D01*
X186703980Y-89350634D01*
X185919278Y-89025600D01*
X185069922Y-89025600D01*
X184285220Y-89350634D01*
X183684634Y-89951220D01*
X183398780Y-90641334D01*
X183127339Y-89986018D01*
X182808570Y-89826235D01*
X181474205Y-91160600D01*
X181114995Y-91160600D01*
X179780630Y-89826235D01*
X179461861Y-89986018D01*
X179197898Y-90659387D01*
X178904566Y-89951220D01*
X178599976Y-89646630D01*
X179960235Y-89646630D01*
X181294600Y-90980995D01*
X182628965Y-89646630D01*
X182469182Y-89327861D01*
X181678413Y-89017877D01*
X180829213Y-89034103D01*
X180120018Y-89327861D01*
X179960235Y-89646630D01*
X178599976Y-89646630D01*
X178303980Y-89350634D01*
X177519278Y-89025600D01*
X176669922Y-89025600D01*
X175885220Y-89350634D01*
X175284634Y-89951220D01*
X174998780Y-90641334D01*
X174727339Y-89986018D01*
X174408570Y-89826235D01*
X173074205Y-91160600D01*
X172714995Y-91160600D01*
X171380630Y-89826235D01*
X171061861Y-89986018D01*
X170797898Y-90659387D01*
X170504566Y-89951220D01*
X170199976Y-89646630D01*
X171560235Y-89646630D01*
X172894600Y-90980995D01*
X174228965Y-89646630D01*
X174069182Y-89327861D01*
X173278413Y-89017877D01*
X172429213Y-89034103D01*
X171720018Y-89327861D01*
X171560235Y-89646630D01*
X170199976Y-89646630D01*
X169903980Y-89350634D01*
X169119278Y-89025600D01*
X168269922Y-89025600D01*
X167485220Y-89350634D01*
X166884634Y-89951220D01*
X166594600Y-90651424D01*
X166304566Y-89951220D01*
X165703980Y-89350634D01*
X164919278Y-89025600D01*
X164069922Y-89025600D01*
X163285220Y-89350634D01*
X162684634Y-89951220D01*
X162394600Y-90651424D01*
X162104566Y-89951220D01*
X161503980Y-89350634D01*
X160719278Y-89025600D01*
X159869922Y-89025600D01*
X159085220Y-89350634D01*
X158484634Y-89951220D01*
X158194600Y-90651424D01*
X157904566Y-89951220D01*
X157303980Y-89350634D01*
X156519278Y-89025600D01*
X155669922Y-89025600D01*
X154885220Y-89350634D01*
X154284634Y-89951220D01*
X153994600Y-90651424D01*
X153704566Y-89951220D01*
X153103980Y-89350634D01*
X152319278Y-89025600D01*
X151469922Y-89025600D01*
X150685220Y-89350634D01*
X150084634Y-89951220D01*
X149759600Y-90735922D01*
X147979600Y-90735922D01*
X147979600Y-87174570D01*
X150560235Y-87174570D01*
X150720018Y-87493339D01*
X151510787Y-87803323D01*
X152359987Y-87787097D01*
X153069182Y-87493339D01*
X153228965Y-87174570D01*
X151894600Y-85840205D01*
X150560235Y-87174570D01*
X147979600Y-87174570D01*
X147979600Y-85276787D01*
X149751877Y-85276787D01*
X149768103Y-86125987D01*
X150061861Y-86835182D01*
X150380630Y-86994965D01*
X151714995Y-85660600D01*
X152074205Y-85660600D01*
X153408570Y-86994965D01*
X153727339Y-86835182D01*
X153991302Y-86161813D01*
X154284634Y-86869980D01*
X154885220Y-87470566D01*
X155669922Y-87795600D01*
X156519278Y-87795600D01*
X157303980Y-87470566D01*
X157904566Y-86869980D01*
X158194600Y-86169776D01*
X158484634Y-86869980D01*
X159085220Y-87470566D01*
X159869922Y-87795600D01*
X160719278Y-87795600D01*
X161503980Y-87470566D01*
X162104566Y-86869980D01*
X162394600Y-86169776D01*
X162441648Y-86283360D01*
X162483475Y-86493636D01*
X162602585Y-86671897D01*
X162684634Y-86869980D01*
X162836241Y-87021587D01*
X162955352Y-87199849D01*
X163133614Y-87318960D01*
X163285220Y-87470566D01*
X163483301Y-87552614D01*
X163661565Y-87671726D01*
X163871842Y-87713553D01*
X164069922Y-87795600D01*
X164284322Y-87795600D01*
X164494600Y-87837427D01*
X164704879Y-87795600D01*
X164919278Y-87795600D01*
X165117357Y-87713553D01*
X165327636Y-87671726D01*
X165505901Y-87552613D01*
X165703980Y-87470566D01*
X165855584Y-87318962D01*
X166033849Y-87199849D01*
X166152962Y-87021584D01*
X166304566Y-86869980D01*
X166386613Y-86671901D01*
X166505726Y-86493636D01*
X166547553Y-86283357D01*
X166594600Y-86169776D01*
X166884634Y-86869980D01*
X167485220Y-87470566D01*
X168269922Y-87795600D01*
X169119278Y-87795600D01*
X169903980Y-87470566D01*
X170199976Y-87174570D01*
X171560235Y-87174570D01*
X171720018Y-87493339D01*
X172510787Y-87803323D01*
X173359987Y-87787097D01*
X174069182Y-87493339D01*
X174228965Y-87174570D01*
X175760235Y-87174570D01*
X175920018Y-87493339D01*
X176710787Y-87803323D01*
X177559987Y-87787097D01*
X178269182Y-87493339D01*
X178428965Y-87174570D01*
X179960235Y-87174570D01*
X180120018Y-87493339D01*
X180910787Y-87803323D01*
X181759987Y-87787097D01*
X182469182Y-87493339D01*
X182628965Y-87174570D01*
X181294600Y-85840205D01*
X179960235Y-87174570D01*
X178428965Y-87174570D01*
X177094600Y-85840205D01*
X175760235Y-87174570D01*
X174228965Y-87174570D01*
X172894600Y-85840205D01*
X171560235Y-87174570D01*
X170199976Y-87174570D01*
X170504566Y-86869980D01*
X170790420Y-86179866D01*
X171061861Y-86835182D01*
X171380630Y-86994965D01*
X172714995Y-85660600D01*
X173074205Y-85660600D01*
X174408570Y-86994965D01*
X174727339Y-86835182D01*
X174987237Y-86172181D01*
X175261861Y-86835182D01*
X175580630Y-86994965D01*
X176914995Y-85660600D01*
X177274205Y-85660600D01*
X178608570Y-86994965D01*
X178927339Y-86835182D01*
X179187237Y-86172181D01*
X179461861Y-86835182D01*
X179780630Y-86994965D01*
X181114995Y-85660600D01*
X181474205Y-85660600D01*
X182808570Y-86994965D01*
X183127339Y-86835182D01*
X183391302Y-86161813D01*
X183684634Y-86869980D01*
X184285220Y-87470566D01*
X185069922Y-87795600D01*
X185919278Y-87795600D01*
X186703980Y-87470566D01*
X186999976Y-87174570D01*
X188360235Y-87174570D01*
X188520018Y-87493339D01*
X189310787Y-87803323D01*
X190159987Y-87787097D01*
X190869182Y-87493339D01*
X191028965Y-87174570D01*
X189694600Y-85840205D01*
X188360235Y-87174570D01*
X186999976Y-87174570D01*
X187304566Y-86869980D01*
X187590420Y-86179866D01*
X187861861Y-86835182D01*
X188180630Y-86994965D01*
X189514995Y-85660600D01*
X189874205Y-85660600D01*
X191208570Y-86994965D01*
X191527339Y-86835182D01*
X191791302Y-86161813D01*
X192084634Y-86869980D01*
X192685220Y-87470566D01*
X193469922Y-87795600D01*
X194319278Y-87795600D01*
X195103980Y-87470566D01*
X195704566Y-86869980D01*
X195994600Y-86169776D01*
X196284634Y-86869980D01*
X196885220Y-87470566D01*
X197669922Y-87795600D01*
X198519278Y-87795600D01*
X199303980Y-87470566D01*
X199904566Y-86869980D01*
X200229600Y-86085278D01*
X200229600Y-85235922D01*
X199904566Y-84451220D01*
X199303980Y-83850634D01*
X198519278Y-83525600D01*
X197669922Y-83525600D01*
X196885220Y-83850634D01*
X196284634Y-84451220D01*
X195994600Y-85151424D01*
X195704566Y-84451220D01*
X195103980Y-83850634D01*
X194319278Y-83525600D01*
X193469922Y-83525600D01*
X192685220Y-83850634D01*
X192084634Y-84451220D01*
X191798780Y-85141334D01*
X191527339Y-84486018D01*
X191208570Y-84326235D01*
X189874205Y-85660600D01*
X189514995Y-85660600D01*
X188180630Y-84326235D01*
X187861861Y-84486018D01*
X187597898Y-85159387D01*
X187304566Y-84451220D01*
X186999976Y-84146630D01*
X188360235Y-84146630D01*
X189694600Y-85480995D01*
X191028965Y-84146630D01*
X190869182Y-83827861D01*
X190078413Y-83517877D01*
X189229213Y-83534103D01*
X188520018Y-83827861D01*
X188360235Y-84146630D01*
X186999976Y-84146630D01*
X186703980Y-83850634D01*
X185919278Y-83525600D01*
X185069922Y-83525600D01*
X184285220Y-83850634D01*
X183684634Y-84451220D01*
X183398780Y-85141334D01*
X183127339Y-84486018D01*
X182808570Y-84326235D01*
X181474205Y-85660600D01*
X181114995Y-85660600D01*
X179780630Y-84326235D01*
X179461861Y-84486018D01*
X179201963Y-85149019D01*
X178927339Y-84486018D01*
X178608570Y-84326235D01*
X177274205Y-85660600D01*
X176914995Y-85660600D01*
X175580630Y-84326235D01*
X175261861Y-84486018D01*
X175001963Y-85149019D01*
X174727339Y-84486018D01*
X174408570Y-84326235D01*
X173074205Y-85660600D01*
X172714995Y-85660600D01*
X171380630Y-84326235D01*
X171061861Y-84486018D01*
X170797898Y-85159387D01*
X170504566Y-84451220D01*
X170199976Y-84146630D01*
X171560235Y-84146630D01*
X172894600Y-85480995D01*
X174228965Y-84146630D01*
X175760235Y-84146630D01*
X177094600Y-85480995D01*
X178428965Y-84146630D01*
X179960235Y-84146630D01*
X181294600Y-85480995D01*
X182628965Y-84146630D01*
X182469182Y-83827861D01*
X181678413Y-83517877D01*
X180829213Y-83534103D01*
X180120018Y-83827861D01*
X179960235Y-84146630D01*
X178428965Y-84146630D01*
X178269182Y-83827861D01*
X177478413Y-83517877D01*
X176629213Y-83534103D01*
X175920018Y-83827861D01*
X175760235Y-84146630D01*
X174228965Y-84146630D01*
X174069182Y-83827861D01*
X173278413Y-83517877D01*
X172429213Y-83534103D01*
X171720018Y-83827861D01*
X171560235Y-84146630D01*
X170199976Y-84146630D01*
X169903980Y-83850634D01*
X169119278Y-83525600D01*
X168269922Y-83525600D01*
X167558012Y-83820483D01*
X169919295Y-81459200D01*
X175151325Y-81459200D01*
X175361600Y-81501026D01*
X175571875Y-81459200D01*
X175571879Y-81459200D01*
X176194636Y-81335326D01*
X176900849Y-80863449D01*
X177019964Y-80685181D01*
X178123062Y-79582083D01*
X191023600Y-79582083D01*
X191023600Y-80709917D01*
X191455203Y-81751899D01*
X192252701Y-82549397D01*
X193294683Y-82981000D01*
X194422517Y-82981000D01*
X195464499Y-82549397D01*
X196261997Y-81751899D01*
X196693600Y-80709917D01*
X196693600Y-79582083D01*
X196261997Y-78540101D01*
X195464499Y-77742603D01*
X194422517Y-77311000D01*
X193294683Y-77311000D01*
X192252701Y-77742603D01*
X191455203Y-78540101D01*
X191023600Y-79582083D01*
X178123062Y-79582083D01*
X179618184Y-78086962D01*
X179796449Y-77967849D01*
X180268326Y-77261636D01*
X180392200Y-76638879D01*
X180392200Y-76638875D01*
X180434026Y-76428600D01*
X180392200Y-76218325D01*
X180392200Y-71570196D01*
X181022000Y-71570196D01*
X181022000Y-72300204D01*
X181301362Y-72974644D01*
X181817556Y-73490838D01*
X182491996Y-73770200D01*
X183222004Y-73770200D01*
X183896444Y-73490838D01*
X184154907Y-73232375D01*
X189659430Y-73232375D01*
X189782565Y-73519988D01*
X190464734Y-73779907D01*
X191194443Y-73758986D01*
X191771435Y-73519988D01*
X191894570Y-73232375D01*
X190777000Y-72114805D01*
X189659430Y-73232375D01*
X184154907Y-73232375D01*
X184412638Y-72974644D01*
X184692000Y-72300204D01*
X184692000Y-71622934D01*
X188932293Y-71622934D01*
X188953214Y-72352643D01*
X189192212Y-72929635D01*
X189479825Y-73052770D01*
X190597395Y-71935200D01*
X190956605Y-71935200D01*
X192074175Y-73052770D01*
X192361788Y-72929635D01*
X192621707Y-72247466D01*
X192600786Y-71517757D01*
X192361788Y-70940765D01*
X192074175Y-70817630D01*
X190956605Y-71935200D01*
X190597395Y-71935200D01*
X189479825Y-70817630D01*
X189192212Y-70940765D01*
X188932293Y-71622934D01*
X184692000Y-71622934D01*
X184692000Y-71570196D01*
X184412638Y-70895756D01*
X184154907Y-70638025D01*
X189659430Y-70638025D01*
X190777000Y-71755595D01*
X191894570Y-70638025D01*
X191771435Y-70350412D01*
X191089266Y-70090493D01*
X190359557Y-70111414D01*
X189782565Y-70350412D01*
X189659430Y-70638025D01*
X184154907Y-70638025D01*
X183896444Y-70379562D01*
X183222004Y-70100200D01*
X182491996Y-70100200D01*
X181817556Y-70379562D01*
X181301362Y-70895756D01*
X181022000Y-71570196D01*
X180392200Y-71570196D01*
X180392200Y-69374475D01*
X180434026Y-69164200D01*
X180392200Y-68953925D01*
X180392200Y-68953921D01*
X180268326Y-68331164D01*
X179796449Y-67624951D01*
X179618184Y-67505838D01*
X178061364Y-65949019D01*
X177942249Y-65770751D01*
X177236036Y-65298874D01*
X176613279Y-65175000D01*
X176613275Y-65175000D01*
X176403000Y-65133174D01*
X176192725Y-65175000D01*
X171507878Y-65175000D01*
X171297600Y-65133173D01*
X171087321Y-65175000D01*
X170464564Y-65298874D01*
X169758351Y-65770751D01*
X169639238Y-65949016D01*
X168184017Y-67404238D01*
X168005752Y-67523351D01*
X167886639Y-67701616D01*
X167886638Y-67701617D01*
X167533874Y-68229565D01*
X167513665Y-68331164D01*
X167410000Y-68852321D01*
X167410000Y-68852325D01*
X167368174Y-69062600D01*
X167410000Y-69272875D01*
X167410000Y-70746078D01*
X167533874Y-71368835D01*
X168005751Y-72075049D01*
X168400626Y-72338897D01*
X167930019Y-72809504D01*
X167640000Y-73509672D01*
X167640000Y-74267528D01*
X167930019Y-74967696D01*
X168465904Y-75503581D01*
X169166072Y-75793600D01*
X169923928Y-75793600D01*
X170624096Y-75503581D01*
X171159981Y-74967696D01*
X171450000Y-74267528D01*
X171450000Y-73509672D01*
X171159981Y-72809504D01*
X170689373Y-72338896D01*
X171084249Y-72075049D01*
X171556126Y-71368836D01*
X171680000Y-70746079D01*
X171680000Y-69946945D01*
X172181946Y-69445000D01*
X172410411Y-69445000D01*
X172195916Y-69659495D01*
X171960400Y-70228082D01*
X171960400Y-70843518D01*
X172195916Y-71412105D01*
X172631095Y-71847284D01*
X173044332Y-72018452D01*
X172428304Y-72273619D01*
X171892419Y-72809504D01*
X171602400Y-73509672D01*
X171602400Y-74267528D01*
X171892419Y-74967696D01*
X172428304Y-75503581D01*
X173128472Y-75793600D01*
X173886328Y-75793600D01*
X174586496Y-75503581D01*
X175122381Y-74967696D01*
X175412400Y-74267528D01*
X175412400Y-73509672D01*
X175122381Y-72809504D01*
X174586496Y-72273619D01*
X173970468Y-72018452D01*
X174383705Y-71847284D01*
X174818884Y-71412105D01*
X175054400Y-70843518D01*
X175054400Y-70228082D01*
X174818884Y-69659495D01*
X174604389Y-69445000D01*
X175518655Y-69445000D01*
X176122200Y-70048546D01*
X176122201Y-75544253D01*
X174477255Y-77189200D01*
X169245223Y-77189200D01*
X169034948Y-77147374D01*
X168824673Y-77189200D01*
X168824670Y-77189200D01*
X168201913Y-77313074D01*
X167495700Y-77784951D01*
X167376587Y-77963216D01*
X163133619Y-82206185D01*
X162955351Y-82325300D01*
X162483474Y-83031514D01*
X162359600Y-83654271D01*
X162359600Y-83654274D01*
X162317774Y-83864549D01*
X162359600Y-84074824D01*
X162359600Y-85066927D01*
X162104566Y-84451220D01*
X161503980Y-83850634D01*
X160719278Y-83525600D01*
X159869922Y-83525600D01*
X159085220Y-83850634D01*
X158484634Y-84451220D01*
X158194600Y-85151424D01*
X157904566Y-84451220D01*
X157303980Y-83850634D01*
X156519278Y-83525600D01*
X155669922Y-83525600D01*
X154885220Y-83850634D01*
X154284634Y-84451220D01*
X153998780Y-85141334D01*
X153727339Y-84486018D01*
X153408570Y-84326235D01*
X152074205Y-85660600D01*
X151714995Y-85660600D01*
X150380630Y-84326235D01*
X150061861Y-84486018D01*
X149751877Y-85276787D01*
X147979600Y-85276787D01*
X147979600Y-84146630D01*
X150560235Y-84146630D01*
X151894600Y-85480995D01*
X153228965Y-84146630D01*
X153069182Y-83827861D01*
X152278413Y-83517877D01*
X151429213Y-83534103D01*
X150720018Y-83827861D01*
X150560235Y-84146630D01*
X147979600Y-84146630D01*
X147979600Y-73509672D01*
X151790400Y-73509672D01*
X151790400Y-74267528D01*
X152080419Y-74967696D01*
X152616304Y-75503581D01*
X153316472Y-75793600D01*
X154074328Y-75793600D01*
X154774496Y-75503581D01*
X155310381Y-74967696D01*
X155600400Y-74267528D01*
X155600400Y-73509672D01*
X155752800Y-73509672D01*
X155752800Y-74267528D01*
X156042819Y-74967696D01*
X156578704Y-75503581D01*
X157278872Y-75793600D01*
X158036728Y-75793600D01*
X158736896Y-75503581D01*
X159272781Y-74967696D01*
X159562800Y-74267528D01*
X159562800Y-73509672D01*
X159715200Y-73509672D01*
X159715200Y-74267528D01*
X160005219Y-74967696D01*
X160541104Y-75503581D01*
X161241272Y-75793600D01*
X161999128Y-75793600D01*
X162699296Y-75503581D01*
X163235181Y-74967696D01*
X163525200Y-74267528D01*
X163525200Y-73509672D01*
X163677600Y-73509672D01*
X163677600Y-74267528D01*
X163967619Y-74967696D01*
X164503504Y-75503581D01*
X165203672Y-75793600D01*
X165961528Y-75793600D01*
X166661696Y-75503581D01*
X167197581Y-74967696D01*
X167487600Y-74267528D01*
X167487600Y-73509672D01*
X167197581Y-72809504D01*
X166661696Y-72273619D01*
X166060556Y-72024619D01*
X166403963Y-71882375D01*
X166491842Y-71624647D01*
X165582600Y-70715405D01*
X164673358Y-71624647D01*
X164761237Y-71882375D01*
X165125596Y-72015940D01*
X164503504Y-72273619D01*
X163967619Y-72809504D01*
X163677600Y-73509672D01*
X163525200Y-73509672D01*
X163235181Y-72809504D01*
X162699296Y-72273619D01*
X162098156Y-72024619D01*
X162441563Y-71882375D01*
X162529442Y-71624647D01*
X161620200Y-70715405D01*
X160710958Y-71624647D01*
X160798837Y-71882375D01*
X161163196Y-72015940D01*
X160541104Y-72273619D01*
X160005219Y-72809504D01*
X159715200Y-73509672D01*
X159562800Y-73509672D01*
X159272781Y-72809504D01*
X158736896Y-72273619D01*
X158136556Y-72024950D01*
X158480763Y-71882375D01*
X158568642Y-71624647D01*
X157659400Y-70715405D01*
X156750158Y-71624647D01*
X156838037Y-71882375D01*
X157201547Y-72015629D01*
X156578704Y-72273619D01*
X156042819Y-72809504D01*
X155752800Y-73509672D01*
X155600400Y-73509672D01*
X155310381Y-72809504D01*
X154774496Y-72273619D01*
X154158468Y-72018452D01*
X154571705Y-71847284D01*
X155006884Y-71412105D01*
X155242400Y-70843518D01*
X155242400Y-70292271D01*
X156101005Y-70292271D01*
X156126436Y-70907180D01*
X156312825Y-71357163D01*
X156570553Y-71445042D01*
X157479795Y-70535800D01*
X157839005Y-70535800D01*
X158748247Y-71445042D01*
X159005975Y-71357163D01*
X159217795Y-70779329D01*
X159197652Y-70292271D01*
X160061805Y-70292271D01*
X160087236Y-70907180D01*
X160273625Y-71357163D01*
X160531353Y-71445042D01*
X161440595Y-70535800D01*
X161799805Y-70535800D01*
X162709047Y-71445042D01*
X162966775Y-71357163D01*
X163178595Y-70779329D01*
X163158452Y-70292271D01*
X164024205Y-70292271D01*
X164049636Y-70907180D01*
X164236025Y-71357163D01*
X164493753Y-71445042D01*
X165402995Y-70535800D01*
X165762205Y-70535800D01*
X166671447Y-71445042D01*
X166929175Y-71357163D01*
X167140995Y-70779329D01*
X167115564Y-70164420D01*
X166929175Y-69714437D01*
X166671447Y-69626558D01*
X165762205Y-70535800D01*
X165402995Y-70535800D01*
X164493753Y-69626558D01*
X164236025Y-69714437D01*
X164024205Y-70292271D01*
X163158452Y-70292271D01*
X163153164Y-70164420D01*
X162966775Y-69714437D01*
X162709047Y-69626558D01*
X161799805Y-70535800D01*
X161440595Y-70535800D01*
X160531353Y-69626558D01*
X160273625Y-69714437D01*
X160061805Y-70292271D01*
X159197652Y-70292271D01*
X159192364Y-70164420D01*
X159005975Y-69714437D01*
X158748247Y-69626558D01*
X157839005Y-70535800D01*
X157479795Y-70535800D01*
X156570553Y-69626558D01*
X156312825Y-69714437D01*
X156101005Y-70292271D01*
X155242400Y-70292271D01*
X155242400Y-70228082D01*
X155006884Y-69659495D01*
X154794342Y-69446953D01*
X156750158Y-69446953D01*
X157659400Y-70356195D01*
X158568642Y-69446953D01*
X160710958Y-69446953D01*
X161620200Y-70356195D01*
X162529442Y-69446953D01*
X164673358Y-69446953D01*
X165582600Y-70356195D01*
X166491842Y-69446953D01*
X166403963Y-69189225D01*
X165826129Y-68977405D01*
X165211220Y-69002836D01*
X164761237Y-69189225D01*
X164673358Y-69446953D01*
X162529442Y-69446953D01*
X162441563Y-69189225D01*
X161863729Y-68977405D01*
X161248820Y-69002836D01*
X160798837Y-69189225D01*
X160710958Y-69446953D01*
X158568642Y-69446953D01*
X158480763Y-69189225D01*
X157902929Y-68977405D01*
X157288020Y-69002836D01*
X156838037Y-69189225D01*
X156750158Y-69446953D01*
X154794342Y-69446953D01*
X154571705Y-69224316D01*
X154003118Y-68988800D01*
X153387682Y-68988800D01*
X152819095Y-69224316D01*
X152383916Y-69659495D01*
X152148400Y-70228082D01*
X152148400Y-70843518D01*
X152383916Y-71412105D01*
X152819095Y-71847284D01*
X153232332Y-72018452D01*
X152616304Y-72273619D01*
X152080419Y-72809504D01*
X151790400Y-73509672D01*
X147979600Y-73509672D01*
X147979600Y-64997800D01*
X201473601Y-64997800D01*
X201473600Y-94311000D01*
X201473600Y-94311000D01*
G37*
X201473600Y-94311000D02*
X147979600Y-94311000D01*
X147979600Y-90735922D01*
X149759600Y-90735922D01*
X149759600Y-91585278D01*
X150084634Y-92369980D01*
X150685220Y-92970566D01*
X151469922Y-93295600D01*
X152319278Y-93295600D01*
X153103980Y-92970566D01*
X153704566Y-92369980D01*
X153994600Y-91669776D01*
X154284634Y-92369980D01*
X154885220Y-92970566D01*
X155669922Y-93295600D01*
X156519278Y-93295600D01*
X157303980Y-92970566D01*
X157904566Y-92369980D01*
X158194600Y-91669776D01*
X158484634Y-92369980D01*
X159085220Y-92970566D01*
X159869922Y-93295600D01*
X160719278Y-93295600D01*
X161503980Y-92970566D01*
X162104566Y-92369980D01*
X162394600Y-91669776D01*
X162684634Y-92369980D01*
X163285220Y-92970566D01*
X164069922Y-93295600D01*
X164919278Y-93295600D01*
X165703980Y-92970566D01*
X166304566Y-92369980D01*
X166594600Y-91669776D01*
X166884634Y-92369980D01*
X167485220Y-92970566D01*
X168269922Y-93295600D01*
X169119278Y-93295600D01*
X169903980Y-92970566D01*
X170199976Y-92674570D01*
X171560235Y-92674570D01*
X171720018Y-92993339D01*
X172510787Y-93303323D01*
X173359987Y-93287097D01*
X174069182Y-92993339D01*
X174228965Y-92674570D01*
X172894600Y-91340205D01*
X171560235Y-92674570D01*
X170199976Y-92674570D01*
X170504566Y-92369980D01*
X170790420Y-91679866D01*
X171061861Y-92335182D01*
X171380630Y-92494965D01*
X172714995Y-91160600D01*
X173074205Y-91160600D01*
X174408570Y-92494965D01*
X174727339Y-92335182D01*
X174991302Y-91661813D01*
X175284634Y-92369980D01*
X175885220Y-92970566D01*
X176669922Y-93295600D01*
X177519278Y-93295600D01*
X178303980Y-92970566D01*
X178599976Y-92674570D01*
X179960235Y-92674570D01*
X180120018Y-92993339D01*
X180910787Y-93303323D01*
X181759987Y-93287097D01*
X182469182Y-92993339D01*
X182628965Y-92674570D01*
X181294600Y-91340205D01*
X179960235Y-92674570D01*
X178599976Y-92674570D01*
X178904566Y-92369980D01*
X179190420Y-91679866D01*
X179461861Y-92335182D01*
X179780630Y-92494965D01*
X181114995Y-91160600D01*
X181474205Y-91160600D01*
X182808570Y-92494965D01*
X183127339Y-92335182D01*
X183391302Y-91661813D01*
X183684634Y-92369980D01*
X184285220Y-92970566D01*
X185069922Y-93295600D01*
X185919278Y-93295600D01*
X186703980Y-92970566D01*
X186999976Y-92674570D01*
X188360235Y-92674570D01*
X188520018Y-92993339D01*
X189310787Y-93303323D01*
X190159987Y-93287097D01*
X190869182Y-92993339D01*
X191028965Y-92674570D01*
X189694600Y-91340205D01*
X188360235Y-92674570D01*
X186999976Y-92674570D01*
X187304566Y-92369980D01*
X187590420Y-91679866D01*
X187861861Y-92335182D01*
X188180630Y-92494965D01*
X189514995Y-91160600D01*
X189874205Y-91160600D01*
X191208570Y-92494965D01*
X191527339Y-92335182D01*
X191791302Y-91661813D01*
X192084634Y-92369980D01*
X192685220Y-92970566D01*
X193469922Y-93295600D01*
X194319278Y-93295600D01*
X195103980Y-92970566D01*
X195704566Y-92369980D01*
X195994600Y-91669776D01*
X196284634Y-92369980D01*
X196885220Y-92970566D01*
X197669922Y-93295600D01*
X198519278Y-93295600D01*
X199303980Y-92970566D01*
X199904566Y-92369980D01*
X200229600Y-91585278D01*
X200229600Y-90735922D01*
X199904566Y-89951220D01*
X199303980Y-89350634D01*
X198519278Y-89025600D01*
X197669922Y-89025600D01*
X196885220Y-89350634D01*
X196284634Y-89951220D01*
X195994600Y-90651424D01*
X195704566Y-89951220D01*
X195103980Y-89350634D01*
X194319278Y-89025600D01*
X193469922Y-89025600D01*
X192685220Y-89350634D01*
X192084634Y-89951220D01*
X191798780Y-90641334D01*
X191527339Y-89986018D01*
X191208570Y-89826235D01*
X189874205Y-91160600D01*
X189514995Y-91160600D01*
X188180630Y-89826235D01*
X187861861Y-89986018D01*
X187597898Y-90659387D01*
X187304566Y-89951220D01*
X186999976Y-89646630D01*
X188360235Y-89646630D01*
X189694600Y-90980995D01*
X191028965Y-89646630D01*
X190869182Y-89327861D01*
X190078413Y-89017877D01*
X189229213Y-89034103D01*
X188520018Y-89327861D01*
X188360235Y-89646630D01*
X186999976Y-89646630D01*
X186703980Y-89350634D01*
X185919278Y-89025600D01*
X185069922Y-89025600D01*
X184285220Y-89350634D01*
X183684634Y-89951220D01*
X183398780Y-90641334D01*
X183127339Y-89986018D01*
X182808570Y-89826235D01*
X181474205Y-91160600D01*
X181114995Y-91160600D01*
X179780630Y-89826235D01*
X179461861Y-89986018D01*
X179197898Y-90659387D01*
X178904566Y-89951220D01*
X178599976Y-89646630D01*
X179960235Y-89646630D01*
X181294600Y-90980995D01*
X182628965Y-89646630D01*
X182469182Y-89327861D01*
X181678413Y-89017877D01*
X180829213Y-89034103D01*
X180120018Y-89327861D01*
X179960235Y-89646630D01*
X178599976Y-89646630D01*
X178303980Y-89350634D01*
X177519278Y-89025600D01*
X176669922Y-89025600D01*
X175885220Y-89350634D01*
X175284634Y-89951220D01*
X174998780Y-90641334D01*
X174727339Y-89986018D01*
X174408570Y-89826235D01*
X173074205Y-91160600D01*
X172714995Y-91160600D01*
X171380630Y-89826235D01*
X171061861Y-89986018D01*
X170797898Y-90659387D01*
X170504566Y-89951220D01*
X170199976Y-89646630D01*
X171560235Y-89646630D01*
X172894600Y-90980995D01*
X174228965Y-89646630D01*
X174069182Y-89327861D01*
X173278413Y-89017877D01*
X172429213Y-89034103D01*
X171720018Y-89327861D01*
X171560235Y-89646630D01*
X170199976Y-89646630D01*
X169903980Y-89350634D01*
X169119278Y-89025600D01*
X168269922Y-89025600D01*
X167485220Y-89350634D01*
X166884634Y-89951220D01*
X166594600Y-90651424D01*
X166304566Y-89951220D01*
X165703980Y-89350634D01*
X164919278Y-89025600D01*
X164069922Y-89025600D01*
X163285220Y-89350634D01*
X162684634Y-89951220D01*
X162394600Y-90651424D01*
X162104566Y-89951220D01*
X161503980Y-89350634D01*
X160719278Y-89025600D01*
X159869922Y-89025600D01*
X159085220Y-89350634D01*
X158484634Y-89951220D01*
X158194600Y-90651424D01*
X157904566Y-89951220D01*
X157303980Y-89350634D01*
X156519278Y-89025600D01*
X155669922Y-89025600D01*
X154885220Y-89350634D01*
X154284634Y-89951220D01*
X153994600Y-90651424D01*
X153704566Y-89951220D01*
X153103980Y-89350634D01*
X152319278Y-89025600D01*
X151469922Y-89025600D01*
X150685220Y-89350634D01*
X150084634Y-89951220D01*
X149759600Y-90735922D01*
X147979600Y-90735922D01*
X147979600Y-87174570D01*
X150560235Y-87174570D01*
X150720018Y-87493339D01*
X151510787Y-87803323D01*
X152359987Y-87787097D01*
X153069182Y-87493339D01*
X153228965Y-87174570D01*
X151894600Y-85840205D01*
X150560235Y-87174570D01*
X147979600Y-87174570D01*
X147979600Y-85276787D01*
X149751877Y-85276787D01*
X149768103Y-86125987D01*
X150061861Y-86835182D01*
X150380630Y-86994965D01*
X151714995Y-85660600D01*
X152074205Y-85660600D01*
X153408570Y-86994965D01*
X153727339Y-86835182D01*
X153991302Y-86161813D01*
X154284634Y-86869980D01*
X154885220Y-87470566D01*
X155669922Y-87795600D01*
X156519278Y-87795600D01*
X157303980Y-87470566D01*
X157904566Y-86869980D01*
X158194600Y-86169776D01*
X158484634Y-86869980D01*
X159085220Y-87470566D01*
X159869922Y-87795600D01*
X160719278Y-87795600D01*
X161503980Y-87470566D01*
X162104566Y-86869980D01*
X162394600Y-86169776D01*
X162441648Y-86283360D01*
X162483475Y-86493636D01*
X162602585Y-86671897D01*
X162684634Y-86869980D01*
X162836241Y-87021587D01*
X162955352Y-87199849D01*
X163133614Y-87318960D01*
X163285220Y-87470566D01*
X163483301Y-87552614D01*
X163661565Y-87671726D01*
X163871842Y-87713553D01*
X164069922Y-87795600D01*
X164284322Y-87795600D01*
X164494600Y-87837427D01*
X164704879Y-87795600D01*
X164919278Y-87795600D01*
X165117357Y-87713553D01*
X165327636Y-87671726D01*
X165505901Y-87552613D01*
X165703980Y-87470566D01*
X165855584Y-87318962D01*
X166033849Y-87199849D01*
X166152962Y-87021584D01*
X166304566Y-86869980D01*
X166386613Y-86671901D01*
X166505726Y-86493636D01*
X166547553Y-86283357D01*
X166594600Y-86169776D01*
X166884634Y-86869980D01*
X167485220Y-87470566D01*
X168269922Y-87795600D01*
X169119278Y-87795600D01*
X169903980Y-87470566D01*
X170199976Y-87174570D01*
X171560235Y-87174570D01*
X171720018Y-87493339D01*
X172510787Y-87803323D01*
X173359987Y-87787097D01*
X174069182Y-87493339D01*
X174228965Y-87174570D01*
X175760235Y-87174570D01*
X175920018Y-87493339D01*
X176710787Y-87803323D01*
X177559987Y-87787097D01*
X178269182Y-87493339D01*
X178428965Y-87174570D01*
X179960235Y-87174570D01*
X180120018Y-87493339D01*
X180910787Y-87803323D01*
X181759987Y-87787097D01*
X182469182Y-87493339D01*
X182628965Y-87174570D01*
X181294600Y-85840205D01*
X179960235Y-87174570D01*
X178428965Y-87174570D01*
X177094600Y-85840205D01*
X175760235Y-87174570D01*
X174228965Y-87174570D01*
X172894600Y-85840205D01*
X171560235Y-87174570D01*
X170199976Y-87174570D01*
X170504566Y-86869980D01*
X170790420Y-86179866D01*
X171061861Y-86835182D01*
X171380630Y-86994965D01*
X172714995Y-85660600D01*
X173074205Y-85660600D01*
X174408570Y-86994965D01*
X174727339Y-86835182D01*
X174987237Y-86172181D01*
X175261861Y-86835182D01*
X175580630Y-86994965D01*
X176914995Y-85660600D01*
X177274205Y-85660600D01*
X178608570Y-86994965D01*
X178927339Y-86835182D01*
X179187237Y-86172181D01*
X179461861Y-86835182D01*
X179780630Y-86994965D01*
X181114995Y-85660600D01*
X181474205Y-85660600D01*
X182808570Y-86994965D01*
X183127339Y-86835182D01*
X183391302Y-86161813D01*
X183684634Y-86869980D01*
X184285220Y-87470566D01*
X185069922Y-87795600D01*
X185919278Y-87795600D01*
X186703980Y-87470566D01*
X186999976Y-87174570D01*
X188360235Y-87174570D01*
X188520018Y-87493339D01*
X189310787Y-87803323D01*
X190159987Y-87787097D01*
X190869182Y-87493339D01*
X191028965Y-87174570D01*
X189694600Y-85840205D01*
X188360235Y-87174570D01*
X186999976Y-87174570D01*
X187304566Y-86869980D01*
X187590420Y-86179866D01*
X187861861Y-86835182D01*
X188180630Y-86994965D01*
X189514995Y-85660600D01*
X189874205Y-85660600D01*
X191208570Y-86994965D01*
X191527339Y-86835182D01*
X191791302Y-86161813D01*
X192084634Y-86869980D01*
X192685220Y-87470566D01*
X193469922Y-87795600D01*
X194319278Y-87795600D01*
X195103980Y-87470566D01*
X195704566Y-86869980D01*
X195994600Y-86169776D01*
X196284634Y-86869980D01*
X196885220Y-87470566D01*
X197669922Y-87795600D01*
X198519278Y-87795600D01*
X199303980Y-87470566D01*
X199904566Y-86869980D01*
X200229600Y-86085278D01*
X200229600Y-85235922D01*
X199904566Y-84451220D01*
X199303980Y-83850634D01*
X198519278Y-83525600D01*
X197669922Y-83525600D01*
X196885220Y-83850634D01*
X196284634Y-84451220D01*
X195994600Y-85151424D01*
X195704566Y-84451220D01*
X195103980Y-83850634D01*
X194319278Y-83525600D01*
X193469922Y-83525600D01*
X192685220Y-83850634D01*
X192084634Y-84451220D01*
X191798780Y-85141334D01*
X191527339Y-84486018D01*
X191208570Y-84326235D01*
X189874205Y-85660600D01*
X189514995Y-85660600D01*
X188180630Y-84326235D01*
X187861861Y-84486018D01*
X187597898Y-85159387D01*
X187304566Y-84451220D01*
X186999976Y-84146630D01*
X188360235Y-84146630D01*
X189694600Y-85480995D01*
X191028965Y-84146630D01*
X190869182Y-83827861D01*
X190078413Y-83517877D01*
X189229213Y-83534103D01*
X188520018Y-83827861D01*
X188360235Y-84146630D01*
X186999976Y-84146630D01*
X186703980Y-83850634D01*
X185919278Y-83525600D01*
X185069922Y-83525600D01*
X184285220Y-83850634D01*
X183684634Y-84451220D01*
X183398780Y-85141334D01*
X183127339Y-84486018D01*
X182808570Y-84326235D01*
X181474205Y-85660600D01*
X181114995Y-85660600D01*
X179780630Y-84326235D01*
X179461861Y-84486018D01*
X179201963Y-85149019D01*
X178927339Y-84486018D01*
X178608570Y-84326235D01*
X177274205Y-85660600D01*
X176914995Y-85660600D01*
X175580630Y-84326235D01*
X175261861Y-84486018D01*
X175001963Y-85149019D01*
X174727339Y-84486018D01*
X174408570Y-84326235D01*
X173074205Y-85660600D01*
X172714995Y-85660600D01*
X171380630Y-84326235D01*
X171061861Y-84486018D01*
X170797898Y-85159387D01*
X170504566Y-84451220D01*
X170199976Y-84146630D01*
X171560235Y-84146630D01*
X172894600Y-85480995D01*
X174228965Y-84146630D01*
X175760235Y-84146630D01*
X177094600Y-85480995D01*
X178428965Y-84146630D01*
X179960235Y-84146630D01*
X181294600Y-85480995D01*
X182628965Y-84146630D01*
X182469182Y-83827861D01*
X181678413Y-83517877D01*
X180829213Y-83534103D01*
X180120018Y-83827861D01*
X179960235Y-84146630D01*
X178428965Y-84146630D01*
X178269182Y-83827861D01*
X177478413Y-83517877D01*
X176629213Y-83534103D01*
X175920018Y-83827861D01*
X175760235Y-84146630D01*
X174228965Y-84146630D01*
X174069182Y-83827861D01*
X173278413Y-83517877D01*
X172429213Y-83534103D01*
X171720018Y-83827861D01*
X171560235Y-84146630D01*
X170199976Y-84146630D01*
X169903980Y-83850634D01*
X169119278Y-83525600D01*
X168269922Y-83525600D01*
X167558012Y-83820483D01*
X169919295Y-81459200D01*
X175151325Y-81459200D01*
X175361600Y-81501026D01*
X175571875Y-81459200D01*
X175571879Y-81459200D01*
X176194636Y-81335326D01*
X176900849Y-80863449D01*
X177019964Y-80685181D01*
X178123062Y-79582083D01*
X191023600Y-79582083D01*
X191023600Y-80709917D01*
X191455203Y-81751899D01*
X192252701Y-82549397D01*
X193294683Y-82981000D01*
X194422517Y-82981000D01*
X195464499Y-82549397D01*
X196261997Y-81751899D01*
X196693600Y-80709917D01*
X196693600Y-79582083D01*
X196261997Y-78540101D01*
X195464499Y-77742603D01*
X194422517Y-77311000D01*
X193294683Y-77311000D01*
X192252701Y-77742603D01*
X191455203Y-78540101D01*
X191023600Y-79582083D01*
X178123062Y-79582083D01*
X179618184Y-78086962D01*
X179796449Y-77967849D01*
X180268326Y-77261636D01*
X180392200Y-76638879D01*
X180392200Y-76638875D01*
X180434026Y-76428600D01*
X180392200Y-76218325D01*
X180392200Y-71570196D01*
X181022000Y-71570196D01*
X181022000Y-72300204D01*
X181301362Y-72974644D01*
X181817556Y-73490838D01*
X182491996Y-73770200D01*
X183222004Y-73770200D01*
X183896444Y-73490838D01*
X184154907Y-73232375D01*
X189659430Y-73232375D01*
X189782565Y-73519988D01*
X190464734Y-73779907D01*
X191194443Y-73758986D01*
X191771435Y-73519988D01*
X191894570Y-73232375D01*
X190777000Y-72114805D01*
X189659430Y-73232375D01*
X184154907Y-73232375D01*
X184412638Y-72974644D01*
X184692000Y-72300204D01*
X184692000Y-71622934D01*
X188932293Y-71622934D01*
X188953214Y-72352643D01*
X189192212Y-72929635D01*
X189479825Y-73052770D01*
X190597395Y-71935200D01*
X190956605Y-71935200D01*
X192074175Y-73052770D01*
X192361788Y-72929635D01*
X192621707Y-72247466D01*
X192600786Y-71517757D01*
X192361788Y-70940765D01*
X192074175Y-70817630D01*
X190956605Y-71935200D01*
X190597395Y-71935200D01*
X189479825Y-70817630D01*
X189192212Y-70940765D01*
X188932293Y-71622934D01*
X184692000Y-71622934D01*
X184692000Y-71570196D01*
X184412638Y-70895756D01*
X184154907Y-70638025D01*
X189659430Y-70638025D01*
X190777000Y-71755595D01*
X191894570Y-70638025D01*
X191771435Y-70350412D01*
X191089266Y-70090493D01*
X190359557Y-70111414D01*
X189782565Y-70350412D01*
X189659430Y-70638025D01*
X184154907Y-70638025D01*
X183896444Y-70379562D01*
X183222004Y-70100200D01*
X182491996Y-70100200D01*
X181817556Y-70379562D01*
X181301362Y-70895756D01*
X181022000Y-71570196D01*
X180392200Y-71570196D01*
X180392200Y-69374475D01*
X180434026Y-69164200D01*
X180392200Y-68953925D01*
X180392200Y-68953921D01*
X180268326Y-68331164D01*
X179796449Y-67624951D01*
X179618184Y-67505838D01*
X178061364Y-65949019D01*
X177942249Y-65770751D01*
X177236036Y-65298874D01*
X176613279Y-65175000D01*
X176613275Y-65175000D01*
X176403000Y-65133174D01*
X176192725Y-65175000D01*
X171507878Y-65175000D01*
X171297600Y-65133173D01*
X171087321Y-65175000D01*
X170464564Y-65298874D01*
X169758351Y-65770751D01*
X169639238Y-65949016D01*
X168184017Y-67404238D01*
X168005752Y-67523351D01*
X167886639Y-67701616D01*
X167886638Y-67701617D01*
X167533874Y-68229565D01*
X167513665Y-68331164D01*
X167410000Y-68852321D01*
X167410000Y-68852325D01*
X167368174Y-69062600D01*
X167410000Y-69272875D01*
X167410000Y-70746078D01*
X167533874Y-71368835D01*
X168005751Y-72075049D01*
X168400626Y-72338897D01*
X167930019Y-72809504D01*
X167640000Y-73509672D01*
X167640000Y-74267528D01*
X167930019Y-74967696D01*
X168465904Y-75503581D01*
X169166072Y-75793600D01*
X169923928Y-75793600D01*
X170624096Y-75503581D01*
X171159981Y-74967696D01*
X171450000Y-74267528D01*
X171450000Y-73509672D01*
X171159981Y-72809504D01*
X170689373Y-72338896D01*
X171084249Y-72075049D01*
X171556126Y-71368836D01*
X171680000Y-70746079D01*
X171680000Y-69946945D01*
X172181946Y-69445000D01*
X172410411Y-69445000D01*
X172195916Y-69659495D01*
X171960400Y-70228082D01*
X171960400Y-70843518D01*
X172195916Y-71412105D01*
X172631095Y-71847284D01*
X173044332Y-72018452D01*
X172428304Y-72273619D01*
X171892419Y-72809504D01*
X171602400Y-73509672D01*
X171602400Y-74267528D01*
X171892419Y-74967696D01*
X172428304Y-75503581D01*
X173128472Y-75793600D01*
X173886328Y-75793600D01*
X174586496Y-75503581D01*
X175122381Y-74967696D01*
X175412400Y-74267528D01*
X175412400Y-73509672D01*
X175122381Y-72809504D01*
X174586496Y-72273619D01*
X173970468Y-72018452D01*
X174383705Y-71847284D01*
X174818884Y-71412105D01*
X175054400Y-70843518D01*
X175054400Y-70228082D01*
X174818884Y-69659495D01*
X174604389Y-69445000D01*
X175518655Y-69445000D01*
X176122200Y-70048546D01*
X176122201Y-75544253D01*
X174477255Y-77189200D01*
X169245223Y-77189200D01*
X169034948Y-77147374D01*
X168824673Y-77189200D01*
X168824670Y-77189200D01*
X168201913Y-77313074D01*
X167495700Y-77784951D01*
X167376587Y-77963216D01*
X163133619Y-82206185D01*
X162955351Y-82325300D01*
X162483474Y-83031514D01*
X162359600Y-83654271D01*
X162359600Y-83654274D01*
X162317774Y-83864549D01*
X162359600Y-84074824D01*
X162359600Y-85066927D01*
X162104566Y-84451220D01*
X161503980Y-83850634D01*
X160719278Y-83525600D01*
X159869922Y-83525600D01*
X159085220Y-83850634D01*
X158484634Y-84451220D01*
X158194600Y-85151424D01*
X157904566Y-84451220D01*
X157303980Y-83850634D01*
X156519278Y-83525600D01*
X155669922Y-83525600D01*
X154885220Y-83850634D01*
X154284634Y-84451220D01*
X153998780Y-85141334D01*
X153727339Y-84486018D01*
X153408570Y-84326235D01*
X152074205Y-85660600D01*
X151714995Y-85660600D01*
X150380630Y-84326235D01*
X150061861Y-84486018D01*
X149751877Y-85276787D01*
X147979600Y-85276787D01*
X147979600Y-84146630D01*
X150560235Y-84146630D01*
X151894600Y-85480995D01*
X153228965Y-84146630D01*
X153069182Y-83827861D01*
X152278413Y-83517877D01*
X151429213Y-83534103D01*
X150720018Y-83827861D01*
X150560235Y-84146630D01*
X147979600Y-84146630D01*
X147979600Y-73509672D01*
X151790400Y-73509672D01*
X151790400Y-74267528D01*
X152080419Y-74967696D01*
X152616304Y-75503581D01*
X153316472Y-75793600D01*
X154074328Y-75793600D01*
X154774496Y-75503581D01*
X155310381Y-74967696D01*
X155600400Y-74267528D01*
X155600400Y-73509672D01*
X155752800Y-73509672D01*
X155752800Y-74267528D01*
X156042819Y-74967696D01*
X156578704Y-75503581D01*
X157278872Y-75793600D01*
X158036728Y-75793600D01*
X158736896Y-75503581D01*
X159272781Y-74967696D01*
X159562800Y-74267528D01*
X159562800Y-73509672D01*
X159715200Y-73509672D01*
X159715200Y-74267528D01*
X160005219Y-74967696D01*
X160541104Y-75503581D01*
X161241272Y-75793600D01*
X161999128Y-75793600D01*
X162699296Y-75503581D01*
X163235181Y-74967696D01*
X163525200Y-74267528D01*
X163525200Y-73509672D01*
X163677600Y-73509672D01*
X163677600Y-74267528D01*
X163967619Y-74967696D01*
X164503504Y-75503581D01*
X165203672Y-75793600D01*
X165961528Y-75793600D01*
X166661696Y-75503581D01*
X167197581Y-74967696D01*
X167487600Y-74267528D01*
X167487600Y-73509672D01*
X167197581Y-72809504D01*
X166661696Y-72273619D01*
X166060556Y-72024619D01*
X166403963Y-71882375D01*
X166491842Y-71624647D01*
X165582600Y-70715405D01*
X164673358Y-71624647D01*
X164761237Y-71882375D01*
X165125596Y-72015940D01*
X164503504Y-72273619D01*
X163967619Y-72809504D01*
X163677600Y-73509672D01*
X163525200Y-73509672D01*
X163235181Y-72809504D01*
X162699296Y-72273619D01*
X162098156Y-72024619D01*
X162441563Y-71882375D01*
X162529442Y-71624647D01*
X161620200Y-70715405D01*
X160710958Y-71624647D01*
X160798837Y-71882375D01*
X161163196Y-72015940D01*
X160541104Y-72273619D01*
X160005219Y-72809504D01*
X159715200Y-73509672D01*
X159562800Y-73509672D01*
X159272781Y-72809504D01*
X158736896Y-72273619D01*
X158136556Y-72024950D01*
X158480763Y-71882375D01*
X158568642Y-71624647D01*
X157659400Y-70715405D01*
X156750158Y-71624647D01*
X156838037Y-71882375D01*
X157201547Y-72015629D01*
X156578704Y-72273619D01*
X156042819Y-72809504D01*
X155752800Y-73509672D01*
X155600400Y-73509672D01*
X155310381Y-72809504D01*
X154774496Y-72273619D01*
X154158468Y-72018452D01*
X154571705Y-71847284D01*
X155006884Y-71412105D01*
X155242400Y-70843518D01*
X155242400Y-70292271D01*
X156101005Y-70292271D01*
X156126436Y-70907180D01*
X156312825Y-71357163D01*
X156570553Y-71445042D01*
X157479795Y-70535800D01*
X157839005Y-70535800D01*
X158748247Y-71445042D01*
X159005975Y-71357163D01*
X159217795Y-70779329D01*
X159197652Y-70292271D01*
X160061805Y-70292271D01*
X160087236Y-70907180D01*
X160273625Y-71357163D01*
X160531353Y-71445042D01*
X161440595Y-70535800D01*
X161799805Y-70535800D01*
X162709047Y-71445042D01*
X162966775Y-71357163D01*
X163178595Y-70779329D01*
X163158452Y-70292271D01*
X164024205Y-70292271D01*
X164049636Y-70907180D01*
X164236025Y-71357163D01*
X164493753Y-71445042D01*
X165402995Y-70535800D01*
X165762205Y-70535800D01*
X166671447Y-71445042D01*
X166929175Y-71357163D01*
X167140995Y-70779329D01*
X167115564Y-70164420D01*
X166929175Y-69714437D01*
X166671447Y-69626558D01*
X165762205Y-70535800D01*
X165402995Y-70535800D01*
X164493753Y-69626558D01*
X164236025Y-69714437D01*
X164024205Y-70292271D01*
X163158452Y-70292271D01*
X163153164Y-70164420D01*
X162966775Y-69714437D01*
X162709047Y-69626558D01*
X161799805Y-70535800D01*
X161440595Y-70535800D01*
X160531353Y-69626558D01*
X160273625Y-69714437D01*
X160061805Y-70292271D01*
X159197652Y-70292271D01*
X159192364Y-70164420D01*
X159005975Y-69714437D01*
X158748247Y-69626558D01*
X157839005Y-70535800D01*
X157479795Y-70535800D01*
X156570553Y-69626558D01*
X156312825Y-69714437D01*
X156101005Y-70292271D01*
X155242400Y-70292271D01*
X155242400Y-70228082D01*
X155006884Y-69659495D01*
X154794342Y-69446953D01*
X156750158Y-69446953D01*
X157659400Y-70356195D01*
X158568642Y-69446953D01*
X160710958Y-69446953D01*
X161620200Y-70356195D01*
X162529442Y-69446953D01*
X164673358Y-69446953D01*
X165582600Y-70356195D01*
X166491842Y-69446953D01*
X166403963Y-69189225D01*
X165826129Y-68977405D01*
X165211220Y-69002836D01*
X164761237Y-69189225D01*
X164673358Y-69446953D01*
X162529442Y-69446953D01*
X162441563Y-69189225D01*
X161863729Y-68977405D01*
X161248820Y-69002836D01*
X160798837Y-69189225D01*
X160710958Y-69446953D01*
X158568642Y-69446953D01*
X158480763Y-69189225D01*
X157902929Y-68977405D01*
X157288020Y-69002836D01*
X156838037Y-69189225D01*
X156750158Y-69446953D01*
X154794342Y-69446953D01*
X154571705Y-69224316D01*
X154003118Y-68988800D01*
X153387682Y-68988800D01*
X152819095Y-69224316D01*
X152383916Y-69659495D01*
X152148400Y-70228082D01*
X152148400Y-70843518D01*
X152383916Y-71412105D01*
X152819095Y-71847284D01*
X153232332Y-72018452D01*
X152616304Y-72273619D01*
X152080419Y-72809504D01*
X151790400Y-73509672D01*
X147979600Y-73509672D01*
X147979600Y-64997800D01*
X201473601Y-64997800D01*
X201473600Y-94311000D01*
G04 #@! TD*
M02*
